<svg width="159" height="68" viewBox="0 0 159 68" fill="none" xmlns="http://www.w3.org/2000/svg">
<path d="M12.7057 2H2V52.4173L26.6697 66H38.6605V56.1007L55.994 66H69.8467V56.1007L87.1802 66H99.171V56.1007L116.505 66H128.263V56.1007L145.596 66H157V14.4317L133.494 2H122.323V11.4388L103.937 2H92.7658V11.4388L71.8198 2H60.6486V11.4388L42.4955 2H31.3243V11.4388L12.7057 2Z" fill="#F6F6F6" stroke="black" stroke-width="4"/>
<path d="M22.283 46L31.395 21.69H36.563L45.641 46H41.425L39.147 39.71H28.777L26.499 46H22.283ZM29.933 36.378H37.991L33.979 25.192L29.933 36.378ZM46.9668 46V21.69H56.6908C59.7734 21.69 62.0514 22.2113 63.5248 23.254C65.0208 24.2967 65.7688 25.9627 65.7688 28.252C65.7688 28.9547 65.6554 29.6007 65.4288 30.19C65.2021 30.7793 64.8848 31.3007 64.4768 31.754C64.0688 32.1847 63.5588 32.5473 62.9468 32.842C62.3348 33.1367 61.6434 33.3407 60.8728 33.454C62.5501 33.6807 63.9101 34.2927 64.9528 35.29C65.9954 36.2647 66.5168 37.602 66.5168 39.302C66.5168 41.546 65.7688 43.2233 64.2728 44.334C62.7994 45.4447 60.6234 46 57.7448 46H46.9668ZM50.8428 42.668H57.4388C59.0708 42.668 60.3174 42.362 61.1788 41.75C62.0401 41.1153 62.4708 40.186 62.4708 38.962C62.4708 37.738 62.0401 36.7973 61.1788 36.14C60.3401 35.4827 59.0934 35.154 57.4388 35.154H50.8428V42.668ZM50.8428 32.094H56.3848C58.1074 32.094 59.4221 31.788 60.3288 31.176C61.2354 30.564 61.6888 29.68 61.6888 28.524C61.6888 27.3453 61.2468 26.4727 60.3628 25.906C59.5014 25.3167 58.1754 25.022 56.3848 25.022H50.8428V32.094ZM67.868 33.862C67.868 31.9353 68.1513 30.19 68.718 28.626C69.2847 27.062 70.0893 25.736 71.132 24.648C72.1747 23.56 73.4213 22.7213 74.872 22.132C76.3453 21.5427 77.9773 21.248 79.768 21.248C81.5587 21.248 83.1907 21.5427 84.664 22.132C86.1373 22.7213 87.3953 23.56 88.438 24.648C89.4807 25.736 90.2854 27.062 90.852 28.626C91.4187 30.19 91.702 31.9353 91.702 33.862C91.702 35.8113 91.4187 37.568 90.852 39.132C90.2854 40.6733 89.4807 41.988 88.438 43.076C87.418 44.164 86.16 45.0027 84.664 45.592C83.1907 46.1587 81.5587 46.442 79.768 46.442C77.9773 46.442 76.3453 46.1587 74.872 45.592C73.3987 45.0027 72.1407 44.164 71.098 43.076C70.078 41.9653 69.2847 40.6393 68.718 39.098C68.1513 37.5567 67.868 35.8113 67.868 33.862ZM71.88 33.862C71.88 35.2673 72.0613 36.548 72.424 37.704C72.8093 38.8373 73.342 39.8007 74.022 40.594C74.7247 41.3873 75.552 41.9993 76.504 42.43C77.4787 42.838 78.5667 43.042 79.768 43.042C80.9693 43.042 82.0573 42.838 83.032 42.43C84.0067 41.9993 84.834 41.3873 85.514 40.594C86.2167 39.8007 86.7493 38.8373 87.112 37.704C87.4973 36.5707 87.69 35.29 87.69 33.862C87.69 32.4113 87.4973 31.1193 87.112 29.986C86.7267 28.8527 86.194 27.8893 85.514 27.096C84.834 26.3027 84.0067 25.702 83.032 25.294C82.0573 24.8633 80.9693 24.648 79.768 24.648C78.5893 24.648 77.5127 24.8633 76.538 25.294C75.5633 25.702 74.736 26.3027 74.056 27.096C73.376 27.8893 72.8433 28.8527 72.458 29.986C72.0727 31.1193 71.88 32.4113 71.88 33.862ZM94.116 37.33V21.69H97.992V37.194C97.992 39.0527 98.5133 40.492 99.556 41.512C100.621 42.532 102.117 43.042 104.044 43.042C105.971 43.042 107.455 42.532 108.498 41.512C109.541 40.492 110.062 39.0527 110.062 37.194V21.69H113.972V37.33C113.972 38.7353 113.734 40.0047 113.258 41.138C112.782 42.2487 112.113 43.2007 111.252 43.994C110.413 44.7647 109.382 45.3653 108.158 45.796C106.934 46.2267 105.563 46.442 104.044 46.442C102.503 46.442 101.12 46.2267 99.896 45.796C98.6947 45.3653 97.6633 44.7647 96.802 43.994C95.9407 43.2007 95.272 42.2487 94.796 41.138C94.3427 40.0047 94.116 38.7353 94.116 37.33ZM124.057 46V25.09H116.237V21.69H135.753V25.09H127.933V46H124.057Z" fill="black"/>
</svg>
