<svg width="130" height="68" viewBox="0 0 130 68" fill="none" xmlns="http://www.w3.org/2000/svg">
<path d="M13.1793 2H2V52.9673L25.0573 66H36.9353V54.5964L54.8688 66H66.7468V54.5964L84.2144 66H96.3253V54.5964L116.821 66H128V14.3345L103.079 2H91.9002V11.0764L72.3364 2H60.9242V11.0764L42.9908 2H31.3457V11.0764L13.1793 2Z" fill="#F6F6F6" stroke="black" stroke-width="4"/>
<path d="M21.626 46V21.69H31.35C34.4326 21.69 36.7106 22.2113 38.184 23.254C39.68 24.2967 40.428 25.9627 40.428 28.252C40.428 28.9547 40.3146 29.6007 40.088 30.19C39.8613 30.7793 39.544 31.3007 39.136 31.754C38.728 32.1847 38.218 32.5473 37.606 32.842C36.994 33.1367 36.3026 33.3407 35.532 33.454C37.2093 33.6807 38.5693 34.2927 39.612 35.29C40.6546 36.2647 41.176 37.602 41.176 39.302C41.176 41.546 40.428 43.2233 38.932 44.334C37.4586 45.4447 35.2826 46 32.404 46H21.626ZM25.502 42.668H32.098C33.73 42.668 34.9766 42.362 35.838 41.75C36.6993 41.1153 37.13 40.186 37.13 38.962C37.13 37.738 36.6993 36.7973 35.838 36.14C34.9993 35.4827 33.7526 35.154 32.098 35.154H25.502V42.668ZM25.502 32.094H31.044C32.7666 32.094 34.0813 31.788 34.988 31.176C35.8946 30.564 36.348 29.68 36.348 28.524C36.348 27.3453 35.906 26.4727 35.022 25.906C34.1606 25.3167 32.8346 25.022 31.044 25.022H25.502V32.094ZM43.6064 46V21.69H47.4824V42.6H59.8244V46H43.6064ZM59.8592 33.862C59.8592 31.9353 60.1426 30.19 60.7092 28.626C61.2759 27.062 62.0806 25.736 63.1232 24.648C64.1659 23.56 65.4126 22.7213 66.8632 22.132C68.3366 21.5427 69.9686 21.248 71.7592 21.248C73.5499 21.248 75.1819 21.5427 76.6552 22.132C78.1286 22.7213 79.3866 23.56 80.4292 24.648C81.4719 25.736 82.2766 27.062 82.8432 28.626C83.4099 30.19 83.6932 31.9353 83.6932 33.862C83.6932 35.8113 83.4099 37.568 82.8432 39.132C82.2766 40.6733 81.4719 41.988 80.4292 43.076C79.4092 44.164 78.1512 45.0027 76.6552 45.592C75.1819 46.1587 73.5499 46.442 71.7592 46.442C69.9686 46.442 68.3366 46.1587 66.8632 45.592C65.3899 45.0027 64.1319 44.164 63.0892 43.076C62.0692 41.9653 61.2759 40.6393 60.7092 39.098C60.1426 37.5567 59.8592 35.8113 59.8592 33.862ZM63.8712 33.862C63.8712 35.2673 64.0526 36.548 64.4152 37.704C64.8006 38.8373 65.3332 39.8007 66.0132 40.594C66.7159 41.3873 67.5432 41.9993 68.4952 42.43C69.4699 42.838 70.5579 43.042 71.7592 43.042C72.9606 43.042 74.0486 42.838 75.0232 42.43C75.9979 41.9993 76.8252 41.3873 77.5052 40.594C78.2079 39.8007 78.7406 38.8373 79.1032 37.704C79.4886 36.5707 79.6812 35.29 79.6812 33.862C79.6812 32.4113 79.4886 31.1193 79.1032 29.986C78.7179 28.8527 78.1852 27.8893 77.5052 27.096C76.8252 26.3027 75.9979 25.702 75.0232 25.294C74.0486 24.8633 72.9606 24.648 71.7592 24.648C70.5806 24.648 69.5039 24.8633 68.5292 25.294C67.5546 25.702 66.7272 26.3027 66.0472 27.096C65.3672 27.8893 64.8346 28.8527 64.4492 29.986C64.0639 31.1193 63.8712 32.4113 63.8712 33.862ZM85.5916 33.896C85.5916 31.9693 85.8636 30.224 86.4076 28.66C86.9516 27.096 87.7223 25.77 88.7196 24.682C89.7396 23.594 90.9636 22.7553 92.3916 22.166C93.8423 21.554 95.4403 21.248 97.1856 21.248C100.064 21.248 102.478 22.0073 104.428 23.526C106.377 25.022 107.669 27.1413 108.304 29.884H104.122C103.6 28.2293 102.739 26.9487 101.538 26.042C100.336 25.1127 98.863 24.648 97.1176 24.648C96.007 24.648 94.9756 24.8633 94.0236 25.294C93.0943 25.7247 92.301 26.3367 91.6436 27.13C91.009 27.9007 90.5103 28.864 90.1476 30.02C89.785 31.1533 89.6036 32.4227 89.6036 33.828C89.6036 35.256 89.785 36.5367 90.1476 37.67C90.5103 38.8033 91.0203 39.7667 91.6776 40.56C92.335 41.3533 93.1283 41.9653 94.0576 42.396C94.987 42.8267 96.041 43.042 97.2196 43.042C98.1943 43.042 99.101 42.8947 99.9396 42.6C100.778 42.2827 101.515 41.8407 102.15 41.274C102.784 40.7073 103.306 40.016 103.714 39.2C104.144 38.384 104.45 37.4433 104.632 36.378H97.2876V33.25H108.372V46H105.72L105.244 42.09C104.428 43.4273 103.328 44.4927 101.946 45.286C100.586 46.0567 98.9536 46.442 97.0496 46.442C95.3043 46.442 93.729 46.1473 92.3236 45.558C90.9183 44.9687 89.717 44.13 88.7196 43.042C87.7223 41.954 86.9516 40.6393 86.4076 39.098C85.8636 37.534 85.5916 35.8 85.5916 33.896Z" fill="black"/>
</svg>
