<svg width="316" height="93" viewBox="0 0 316 93" fill="none" xmlns="http://www.w3.org/2000/svg">
<path d="M282.94 2H269.426V17.6366L238.366 2H224.858V17.6366L193.798 2H180.284V17.6366L149.224 2H135.716V17.6366L104.656 2H91.142V17.6366L60.0821 2H46.5739V17.6366L15.5083 2H2V75.3634L33.0599 91H46.5739V75.3634L77.6338 91H91.142V75.3634L122.208 91H135.716V75.3634L166.776 91H180.284V75.3634L211.35 91H224.858V75.3634L255.918 91H269.426V75.3634L300.492 91H314V17.6366L282.94 2Z" stroke="black" stroke-width="4" stroke-miterlimit="10"/>
</svg>
