<svg width="627" height="93" viewBox="0 0 627 93" fill="none" xmlns="http://www.w3.org/2000/svg">
<path d="M593.99 2H580.498V17.6366L549.487 2H536.001V17.6366L504.991 2H491.498V17.6366L460.488 2H447.002V17.6366L415.992 2H402.499V17.6366L371.489 2H358.002V17.6366L326.987 2H313.5V17.6366L282.49 2H269.003V17.6366L237.987 2H224.501V17.6366L193.491 2H179.998V17.6366L148.988 2H135.502V17.6366L104.491 2H90.9992V17.6366L59.9891 2H46.5024V17.6366L15.4923 2H2V75.3634L33.0158 91H46.5024V75.3634L77.5126 91H90.9992V75.3634L122.015 91H135.502V75.3634L166.512 91H179.998V75.3634L211.014 91H224.501V75.3634L255.511 91H269.003V75.3634L300.013 91H313.5V75.3634L344.51 91H358.002V75.3634L389.013 91H402.499V75.3634L433.509 91H447.002V75.3634L478.012 91H491.498V75.3634L522.514 91H536.001V75.3634L567.011 91H580.498V75.3634L611.513 91H625V17.6366L593.99 2Z" stroke="black" stroke-width="4" stroke-miterlimit="10"/>
</svg>
