<svg width="894" height="93" viewBox="0 0 894 93" fill="none" xmlns="http://www.w3.org/2000/svg">
<path d="M860.99 2H847.497V17.6366L816.487 2H803.001V17.6366L771.985 2H758.498V17.6366L727.488 2H714.001V17.6366L682.985 2H669.499V17.6366L638.488 2H624.996V17.6366L593.986 2H580.499V17.6366L549.483 2H535.997V17.6366L504.986 2H491.5V17.6366L460.484 2H446.997V17.6366L415.987 2H402.5V17.6366L371.484 2H357.998V17.6366L326.988 2H313.495V17.6366L282.485 2H268.998V17.6366L237.988 2H224.496V17.6366L193.486 2H179.999V17.6366L148.989 2H135.496V17.6366L104.486 2H90.9994V17.6366L59.9835 2H46.4969V17.6366L15.4867 2H2V75.3634L33.0102 91H46.4969V75.3634L77.5071 91H90.9994V75.3634L122.01 91H135.496V75.3634L166.512 91H179.999V75.3634L211.009 91H224.496V75.3634L255.512 91H268.998V75.3634L300.009 91H313.495V75.3634L344.511 91H357.998V75.3634L389.008 91H402.5V75.3634L433.51 91H446.997V75.3634L478.013 91H491.5V75.3634L522.51 91H535.997V75.3634L567.012 91H580.499V75.3634L611.509 91H624.996V75.3634L656.012 91H669.499V75.3634L700.509 91H714.001V75.3634L745.011 91H758.498V75.3634L789.508 91H803.001V75.3634L834.011 91H847.497V75.3634L878.508 91H892V17.6366L860.99 2Z" stroke="black" stroke-width="4" stroke-miterlimit="10"/>
</svg>
