<svg width="538" height="93" viewBox="0 0 538 93" fill="none" xmlns="http://www.w3.org/2000/svg">
<path d="M504.984 2H491.498V17.6366L460.488 2H446.995V17.6366L415.985 2H402.499V17.6366L371.488 2H357.996V17.6366L326.986 2H313.5V17.6366L282.489 2H268.997V17.6366L237.987 2H224.495V17.6366L193.485 2H179.998V17.6366L148.988 2H135.496V17.6366L104.486 2H90.9991V17.6366L59.989 2H46.4967V17.6366L15.4866 2H2V75.3634L33.0101 91H46.4967V75.3634L77.5125 91H90.9991V75.3634L122.009 91H135.496V75.3634L166.512 91H179.998V75.3634L211.008 91H224.495V75.3634L255.511 91H268.997V75.3634L300.007 91H313.5V75.3634L344.51 91H357.996V75.3634L389.012 91H402.499V75.3634L433.509 91H446.995V75.3634L478.011 91H491.498V75.3634L522.508 91H536V17.6366L504.984 2Z" stroke="black" stroke-width="4" stroke-miterlimit="10"/>
</svg>
