<svg width="716" height="93" viewBox="0 0 716 93" fill="none" xmlns="http://www.w3.org/2000/svg">
<path d="M682.984 2H669.498V17.6366L638.487 2H625.001V17.6366L593.985 2H580.498V17.6366L549.488 2H535.996V17.6366L504.986 2H491.499V17.6366L460.483 2H446.996V17.6366L415.986 2H402.5V17.6366L371.484 2H357.997V17.6366L326.987 2H313.5V17.6366L282.485 2H268.998V17.6366L237.988 2H224.495V17.6366L193.485 2H179.999V17.6366L148.988 2H135.496V17.6366L104.486 2H90.9993V17.6366L59.9891 2H46.4968V17.6366L15.4866 2H2V75.3634L33.0102 91H46.4968V75.3634L77.5127 91H90.9993V75.3634L122.009 91H135.496V75.3634L166.512 91H179.999V75.3634L211.009 91H224.495V75.3634L255.511 91H268.998V75.3634L300.008 91H313.5V75.3634L344.511 91H357.997V75.3634L389.013 91H402.5V75.3634L433.51 91H446.996V75.3634L478.012 91H491.499V75.3634L522.509 91H535.996V75.3634L567.012 91H580.498V75.3634L611.508 91H625.001V75.3634L656.011 91H669.498V75.3634L700.508 91H714V17.6366L682.984 2Z" stroke="black" stroke-width="4" stroke-miterlimit="10"/>
</svg>
