<svg width="405" height="93" viewBox="0 0 405 93" fill="none" xmlns="http://www.w3.org/2000/svg">
<path d="M371.945 2H358.442V17.6366L327.393 2H313.89V17.6366L282.835 2H269.331V17.6366L238.283 2H224.779V17.6366L193.724 2H180.221V17.6366L149.172 2H135.663V17.6366L104.614 2H91.1105V17.6366L60.0559 2H46.5524V17.6366L15.5035 2H2V75.3634L33.0489 91H46.5524V75.3634L77.607 91H91.1105V75.3634L122.159 91H135.663V75.3634L166.717 91H180.221V75.3634L211.27 91H224.779V75.3634L255.828 91H269.331V75.3634L300.38 91H313.89V75.3634L344.938 91H358.442V75.3634L389.491 91H403V17.6366L371.945 2Z" stroke="black" stroke-width="4" stroke-miterlimit="10"/>
</svg>
