<svg width="140" height="78" viewBox="0 0 140 78" fill="none" xmlns="http://www.w3.org/2000/svg">
<path d="M23.1793 12H12V62.9673L35.0573 76H46.9353V64.5964L64.8688 76H76.7468V64.5964L94.2144 76H106.325V64.5964L126.821 76H138V24.3345L113.079 12H101.9V21.0764L82.3364 12H70.9242V21.0764L52.9908 12H41.3457V21.0764L23.1793 12Z" fill="black" stroke="black" stroke-width="4"/>
<path d="M13.1793 2H2V52.9673L25.0573 66H36.9353V54.5964L54.8688 66H66.7468V54.5964L84.2144 66H96.3253V54.5964L116.821 66H128V14.3345L103.079 2H91.9002V11.0764L72.3364 2H60.9242V11.0764L42.9908 2H31.3457V11.0764L13.1793 2Z" fill="#F6F6F6" stroke="black" stroke-width="4"/>
<path d="M28.6649 33.862C28.6649 31.9353 28.9369 30.2013 29.4809 28.66C30.0249 27.096 30.7956 25.77 31.7929 24.682C32.8129 23.594 34.0369 22.7553 35.4649 22.166C36.8929 21.554 38.4909 21.248 40.2589 21.248C41.7549 21.248 43.1262 21.4633 44.3729 21.894C45.6422 22.302 46.7529 22.9027 47.7049 23.696C48.6569 24.4893 49.4616 25.464 50.1189 26.62C50.7762 27.776 51.2409 29.0907 51.5129 30.564H47.3989C46.9682 28.6827 46.1296 27.232 44.8829 26.212C43.6362 25.1693 42.0722 24.648 40.1909 24.648C39.0802 24.648 38.0602 24.8633 37.1309 25.294C36.2016 25.7247 35.4082 26.3367 34.7509 27.13C34.0936 27.9233 33.5836 28.8867 33.2209 30.02C32.8582 31.1307 32.6769 32.4113 32.6769 33.862C32.6769 35.2673 32.8582 36.5367 33.2209 37.67C33.5836 38.8033 34.0936 39.7667 34.7509 40.56C35.4082 41.3533 36.2016 41.9653 37.1309 42.396C38.0602 42.8267 39.1029 43.042 40.2589 43.042C42.2082 43.042 43.8062 42.4867 45.0529 41.376C46.3222 40.2427 47.1382 38.6447 47.5009 36.582H51.6149C51.3882 38.146 50.9576 39.54 50.3229 40.764C49.6882 41.9653 48.8722 42.9853 47.8749 43.824C46.9002 44.6627 45.7669 45.3087 44.4749 45.762C43.1829 46.2153 41.7662 46.442 40.2249 46.442C38.4796 46.442 36.8929 46.1473 35.4649 45.558C34.0369 44.9687 32.8129 44.13 31.7929 43.042C30.7956 41.954 30.0249 40.6393 29.4809 39.098C28.9369 37.5567 28.6649 35.8113 28.6649 33.862ZM54.282 46V21.69H58.158V46H54.282ZM68.2523 46V25.09H60.4323V21.69H79.9483V25.09H72.1283V46H68.2523ZM89.7395 46V36.786L80.7635 21.69H85.2175L91.6775 33.114L98.1375 21.69H102.592L93.6155 36.786V46H89.7395Z" fill="black"/>
</svg>
