<svg width="2602" height="841" viewBox="0 0 2602 841" fill="none" xmlns="http://www.w3.org/2000/svg">
<path d="M2520.7 0V34.4844L2456.17 0.713542H2431.78V29.349L2375.71 0H2351.31V34.1875L2287.09 0.713542H2262.6V29.9948L2206.42 0.713542H2181.92V29.349L2125.61 0H2101.12L2099.99 34.4844L2035.46 0.713542H2011.07V29.349L1954.99 0H1930.6V34.1875L1866.38 0.713542H1841.88V29.9948L1785.71 0.713542H1761.22V29.349L1704.9 0H1680.4V34.4844L1615.87 0.713542H1591.48V29.349L1535.4 0H1511.02V34.1875L1446.79 0.713542H1422.29V29.9948L1366.12 0.713542H1341.63V29.349L1285.31 0H1260.81V34.4844L1196.28 0.713542H1171.89V29.349L1115.81 0H1091.42V34.1875L1027.2 0.713542H1002.71V29.9948L946.533 0.713542H922.038V29.349L865.721 0H841.226L840.106 34.4844L775.57 0.713542H751.184V29.349L695.106 0H670.715V34.1875L606.486 0.713542H581.997V29.9948L525.82 0.713542H501.325V29.349L445.007 0H420.518V34.4844L355.981 0.713542H331.596V29.349L275.518 0H251.127V34.1875L186.898 0.713542H162.408V29.9948L106.231 0.713542H81.7415V29.349L25.4186 0H0.720703L2.2207 837.058L2601.22 840.558V30.0576L2545.19 0H2520.7Z" fill="#A4A4A4"/>
</svg>
