<svg width="2618" height="861" viewBox="0 0 2618 861" fill="none" xmlns="http://www.w3.org/2000/svg">
<path d="M14.9292 2.00049H39.4188L95.7417 31.3494V2.71403H120.231L176.408 31.9901V2.71403H200.898L265.127 36.188V2.00049H289.518L345.596 31.3494V2.71403H369.981L434.518 36.4849V2.00049H459.007L515.325 31.3494V2.71403H539.82L595.997 31.9901V2.71403H620.487L684.716 36.188V2.00049H709.106L765.184 31.3494V2.71403H789.575L854.106 36.4849L855.226 2.00049H879.721L936.039 31.3494V2.71403H960.533L1016.71 31.9901V2.71403H1041.2L1105.42 36.188V2.00049H1129.81L1185.89 31.3494V2.71403H1210.28L1274.81 36.4849V2.00049H1299.31L1355.63 31.3494V2.71403H1380.12L1436.29 31.9901V2.71403H1460.79L1525.02 36.188V2.00049H1549.4L1605.48 31.3494V2.71403H1629.87L1694.4 36.4849V2.00049H1718.9L1775.22 31.3494V2.71403H1799.71L1855.88 31.9901V2.71403H1880.38L1944.6 36.188V2.00049H1968.99L2025.07 31.3494V2.71403H2049.46L2113.99 36.4849L2115.11 2.00049H2139.61L2195.92 31.3494V2.71403H2220.42L2276.6 31.9901V2.71403H2301.09L2365.31 36.188V2.00049H2389.71L2445.78 31.3494V2.71403H2470.17L2534.7 36.4849V2.00049H2559.19L2615.51 31.3494V859H3.00001L14.9292 2.00049Z" stroke="black" stroke-width="4" stroke-miterlimit="10"/>
</svg>
