<svg width="2601" height="841" viewBox="0 0 2601 841" fill="none" xmlns="http://www.w3.org/2000/svg">
<path d="M24.208 2L80.0967 31.123L83.0205 32.6465V2.71387H105.021L160.763 31.7686L163.688 33.293V2.71387H185.688L249.481 35.9609L252.406 37.4854V2H274.304L329.947 31.1211L332.875 32.6533V2.71387H354.77L418.869 36.2568L421.797 37.7881V2H443.797L499.68 31.123L502.604 32.6465V2.71387H524.609L580.352 31.7686L583.276 33.293V2.71387H605.275L669.07 35.9609L671.995 37.4854V2H693.893L749.536 31.1211L752.464 32.6533V2.71387H774.358L838.458 36.2568L841.281 37.7334L841.385 34.5488L842.441 2H864.511L920.394 31.123L923.317 32.6465V2.71387H945.322L1001.06 31.7686L1003.98 33.293V2.71387H1025.99L1089.78 35.9609L1092.7 37.4854V2H1114.6L1170.24 31.1211L1173.17 32.6533V2.71387H1195.07L1259.17 36.2568L1262.09 37.7881V2H1284.1L1339.98 31.123L1342.91 32.6465V2.71387H1364.91L1420.65 31.7686L1423.57 33.293V2.71387H1445.58L1509.37 35.9609L1512.3 37.4854V2H1534.19L1589.83 31.1211L1592.76 32.6533V2.71387H1614.66L1678.75 36.2568L1681.68 37.7881V2H1703.69L1759.57 31.123L1762.5 32.6465V2.71387H1784.5L1840.24 31.7686L1843.16 33.293V2.71387H1865.17L1928.96 35.9609L1931.88 37.4854V2H1953.78L2009.42 31.1211L2012.35 32.6533V2.71387H2034.25L2098.34 36.2568L2101.17 37.7334L2101.27 34.5498L2102.33 2H2124.4L2180.28 31.123L2183.2 32.6465V2.71387H2205.21L2260.95 31.7686L2263.88 33.293V2.71387H2285.88L2349.67 35.9609L2352.59 37.4854V2H2374.49L2430.13 31.1211L2433.06 32.6533V2.71387H2454.96L2519.05 36.2568L2521.98 37.7881V2H2543.97L2598.5 31.2539V838.555L3.49609 835.06L2.00391 2H24.208Z" fill="#A4A4A4" stroke="black" stroke-width="4"/>
<path d="M0 39L2600.5 40.5V841H0V39Z" fill="#A4A4A4"/>
<path d="M2595.5 33L2600.5 30V52.5L2592 48L2595.5 33Z" fill="#A4A4A4"/>
<rect y="4" width="24" height="39" fill="#A4A4A4"/>
</svg>
