<svg xmlns="http://www.w3.org/2000/svg" fill="none" viewBox="18 12 98 68">
<path d="M30.9628 14H20V64.466L43.5583 78H55.4541V68.3656L73.1811 78H85.0769V68.3656L102.804 78H114V26.1577L90.2084 14H79.0124V23.405L61.0521 14H49.1563V23.405L30.9628 14Z" fill="#F6F6F6" stroke="black" stroke-width="4"/>
<path d="M32.3611 58.5V34.19H37.9711L45.3491 54.59L52.6931 34.19H58.3371V58.5H54.4271V40.106L47.6611 58.5H43.0371L36.2371 40.106V58.5H32.3611ZM59.7059 58.5L68.8179 34.19H73.9859L83.0639 58.5H78.8479L76.5699 52.21H66.1999L63.9219 58.5H59.7059ZM67.3559 48.878H75.4139L71.4019 37.692L67.3559 48.878ZM84.3896 58.5V34.19H94.6916C97.593 34.19 99.769 34.8473 101.22 36.162C102.67 37.454 103.396 39.3127 103.396 41.738C103.396 44.1407 102.67 45.988 101.22 47.28C99.769 48.572 97.593 49.218 94.6916 49.218H88.2656V58.5H84.3896ZM88.2656 45.818H94.4536C96.0856 45.818 97.3096 45.5007 98.1256 44.866C98.9643 44.2313 99.3836 43.1887 99.3836 41.738C99.3836 40.2647 98.9643 39.2107 98.1256 38.576C97.3096 37.9187 96.0856 37.59 94.4536 37.59H88.2656V45.818Z" fill="black"/>
</svg>