<svg xmlns="http://www.w3.org/2000/svg" fill="none" viewBox="18 12 108 78">
<path d="M40.9628 24H30V74.466L53.5583 88H65.4541V78.3656L83.1811 88H95.0769V78.3656L112.804 88H124V36.1577L100.208 24H89.0124V33.405L71.0521 24H59.1563V33.405L40.9628 24Z" fill="black" stroke="black" stroke-width="4"/>
<path d="M40.9628 24H30V74.466L53.5583 88H65.4541V78.3656L83.1811 88H95.0769V78.3656L112.804 88H124V36.1577L100.208 24H89.0124V33.405L71.0521 24H59.1563V33.405L40.9628 24Z" fill="black" stroke="black" stroke-width="4"/>
<path d="M42.3611 68.5V44.19H47.9711L55.3491 64.59L62.6931 44.19H68.3371V68.5H64.4271V50.106L57.6611 68.5H53.0371L46.2371 50.106V68.5H42.3611ZM69.7059 68.5L78.8179 44.19H83.9859L93.0639 68.5H88.8479L86.5699 62.21H76.1999L73.9219 68.5H69.7059ZM77.3559 58.878H85.4139L81.4019 47.692L77.3559 58.878ZM94.3896 68.5V44.19H104.692C107.593 44.19 109.769 44.8473 111.22 46.162C112.67 47.454 113.396 49.3127 113.396 51.738C113.396 54.1407 112.67 55.988 111.22 57.28C109.769 58.572 107.593 59.218 104.692 59.218H98.2656V68.5H94.3896ZM98.2656 55.818H104.454C106.086 55.818 107.31 55.5007 108.126 54.866C108.964 54.2313 109.384 53.1887 109.384 51.738C109.384 50.2647 108.964 49.2107 108.126 48.576C107.31 47.9187 106.086 47.59 104.454 47.59H98.2656V55.818Z" fill="black"/>
<path d="M30.9628 14H20V64.466L43.5583 78H55.4541V68.3656L73.1811 78H85.0769V68.3656L102.804 78H114V26.1577L90.2084 14H79.0124V23.405L61.0521 14H49.1563V23.405L30.9628 14Z" fill="#F6F6F6" stroke="black" stroke-width="4"/>
<path d="M32.3611 58.5V34.19H37.9711L45.3491 54.59L52.6931 34.19H58.3371V58.5H54.4271V40.106L47.6611 58.5H43.0371L36.2371 40.106V58.5H32.3611ZM59.7059 58.5L68.8179 34.19H73.9859L83.0639 58.5H78.8479L76.5699 52.21H66.1999L63.9219 58.5H59.7059ZM67.3559 48.878H75.4139L71.4019 37.692L67.3559 48.878ZM84.3896 58.5V34.19H94.6916C97.593 34.19 99.769 34.8473 101.22 36.162C102.67 37.454 103.396 39.3127 103.396 41.738C103.396 44.1407 102.67 45.988 101.22 47.28C99.769 48.572 97.593 49.218 94.6916 49.218H88.2656V58.5H84.3896ZM88.2656 45.818H94.4536C96.0856 45.818 97.3096 45.5007 98.1256 44.866C98.9643 44.2313 99.3836 43.1887 99.3836 41.738C99.3836 40.2647 98.9643 39.2107 98.1256 38.576C97.3096 37.9187 96.0856 37.59 94.4536 37.59H88.2656V45.818Z" fill="black"/>
</svg>