<svg width="79" height="78" viewBox="0 0 79 78" fill="none" xmlns="http://www.w3.org/2000/svg">
<path d="M52.4496 12H41.6942V21.0764L22.7554 12H12V62.2691L35.6151 76H47.7734V65.9927L65.3094 76H77V24.1018L52.4496 12Z" fill="black" stroke="black" stroke-width="4"/>
<path d="M21.911 43.862C21.911 41.9353 22.1943 40.19 22.761 38.626C23.3277 37.062 24.1323 35.736 25.175 34.648C26.2177 33.56 27.4643 32.7213 28.915 32.132C30.3883 31.5427 32.0203 31.248 33.811 31.248C35.6017 31.248 37.2337 31.5427 38.707 32.132C40.1803 32.7213 41.4383 33.56 42.481 34.648C43.5237 35.736 44.3283 37.062 44.895 38.626C45.4617 40.19 45.745 41.9353 45.745 43.862C45.745 45.8113 45.4617 47.568 44.895 49.132C44.3283 50.6733 43.5237 51.988 42.481 53.076C41.461 54.164 40.203 55.0027 38.707 55.592C37.2337 56.1587 35.6017 56.442 33.811 56.442C32.0203 56.442 30.3883 56.1587 28.915 55.592C27.4417 55.0027 26.1837 54.164 25.141 53.076C24.121 51.9653 23.3277 50.6393 22.761 49.098C22.1943 47.5567 21.911 45.8113 21.911 43.862ZM25.923 43.862C25.923 45.2673 26.1043 46.548 26.467 47.704C26.8523 48.8373 27.385 49.8007 28.065 50.594C28.7677 51.3873 29.595 51.9993 30.547 52.43C31.5217 52.838 32.6097 53.042 33.811 53.042C35.0123 53.042 36.1003 52.838 37.075 52.43C38.0497 51.9993 38.877 51.3873 39.557 50.594C40.2597 49.8007 40.7923 48.8373 41.155 47.704C41.5403 46.5707 41.733 45.29 41.733 43.862C41.733 42.4113 41.5403 41.1193 41.155 39.986C40.7697 38.8527 40.237 37.8893 39.557 37.096C38.877 36.3027 38.0497 35.702 37.075 35.294C36.1003 34.8633 35.0123 34.648 33.811 34.648C32.6323 34.648 31.5557 34.8633 30.581 35.294C29.6063 35.702 28.779 36.3027 28.099 37.096C27.419 37.8893 26.8863 38.8527 26.501 39.986C26.1157 41.1193 25.923 42.4113 25.923 43.862ZM48.3914 56V31.69H52.2674V43.114L62.9434 31.69H67.7374L58.1494 42.06L68.3834 56H63.6574L55.4974 44.814L52.2674 48.18V56H48.3914Z" fill="black"/>
<path d="M42.4496 2H31.6942V11.0764L12.7554 2H2V52.2691L25.6151 66H37.7734V55.9927L55.3094 66H67V14.1018L42.4496 2Z" fill="#F6F6F6" stroke="black" stroke-width="4"/>
<path d="M11.911 33.862C11.911 31.9353 12.1943 30.19 12.761 28.626C13.3277 27.062 14.1323 25.736 15.175 24.648C16.2177 23.56 17.4643 22.7213 18.915 22.132C20.3883 21.5427 22.0203 21.248 23.811 21.248C25.6017 21.248 27.2337 21.5427 28.707 22.132C30.1803 22.7213 31.4383 23.56 32.481 24.648C33.5237 25.736 34.3283 27.062 34.895 28.626C35.4617 30.19 35.745 31.9353 35.745 33.862C35.745 35.8113 35.4617 37.568 34.895 39.132C34.3283 40.6733 33.5237 41.988 32.481 43.076C31.461 44.164 30.203 45.0027 28.707 45.592C27.2337 46.1587 25.6017 46.442 23.811 46.442C22.0203 46.442 20.3883 46.1587 18.915 45.592C17.4417 45.0027 16.1837 44.164 15.141 43.076C14.121 41.9653 13.3277 40.6393 12.761 39.098C12.1943 37.5567 11.911 35.8113 11.911 33.862ZM15.923 33.862C15.923 35.2673 16.1043 36.548 16.467 37.704C16.8523 38.8373 17.385 39.8007 18.065 40.594C18.7677 41.3873 19.595 41.9993 20.547 42.43C21.5217 42.838 22.6097 43.042 23.811 43.042C25.0123 43.042 26.1003 42.838 27.075 42.43C28.0497 41.9993 28.877 41.3873 29.557 40.594C30.2597 39.8007 30.7923 38.8373 31.155 37.704C31.5403 36.5707 31.733 35.29 31.733 33.862C31.733 32.4113 31.5403 31.1193 31.155 29.986C30.7697 28.8527 30.237 27.8893 29.557 27.096C28.877 26.3027 28.0497 25.702 27.075 25.294C26.1003 24.8633 25.0123 24.648 23.811 24.648C22.6323 24.648 21.5557 24.8633 20.581 25.294C19.6063 25.702 18.779 26.3027 18.099 27.096C17.419 27.8893 16.8863 28.8527 16.501 29.986C16.1157 31.1193 15.923 32.4113 15.923 33.862ZM38.3914 46V21.69H42.2674V33.114L52.9434 21.69H57.7374L48.1494 32.06L58.3834 46H53.6574L45.4974 34.814L42.2674 38.18V46H38.3914Z" fill="black"/>
</svg>
