<svg width="69" height="68" viewBox="0 0 69 68" fill="none" xmlns="http://www.w3.org/2000/svg">
<path d="M42.4496 2H31.6942V11.0764L12.7554 2H2V52.2691L25.6151 66H37.7734V55.9927L55.3094 66H67V14.1018L42.4496 2Z" fill="#F6F6F6" stroke="black" stroke-width="4"/>
<path d="M11.911 33.862C11.911 31.9353 12.1943 30.19 12.761 28.626C13.3277 27.062 14.1323 25.736 15.175 24.648C16.2177 23.56 17.4643 22.7213 18.915 22.132C20.3883 21.5427 22.0203 21.248 23.811 21.248C25.6017 21.248 27.2337 21.5427 28.707 22.132C30.1803 22.7213 31.4383 23.56 32.481 24.648C33.5237 25.736 34.3283 27.062 34.895 28.626C35.4617 30.19 35.745 31.9353 35.745 33.862C35.745 35.8113 35.4617 37.568 34.895 39.132C34.3283 40.6733 33.5237 41.988 32.481 43.076C31.461 44.164 30.203 45.0027 28.707 45.592C27.2337 46.1587 25.6017 46.442 23.811 46.442C22.0203 46.442 20.3883 46.1587 18.915 45.592C17.4417 45.0027 16.1837 44.164 15.141 43.076C14.121 41.9653 13.3277 40.6393 12.761 39.098C12.1943 37.5567 11.911 35.8113 11.911 33.862ZM15.923 33.862C15.923 35.2673 16.1043 36.548 16.467 37.704C16.8523 38.8373 17.385 39.8007 18.065 40.594C18.7677 41.3873 19.595 41.9993 20.547 42.43C21.5217 42.838 22.6097 43.042 23.811 43.042C25.0123 43.042 26.1003 42.838 27.075 42.43C28.0497 41.9993 28.877 41.3873 29.557 40.594C30.2597 39.8007 30.7923 38.8373 31.155 37.704C31.5403 36.5707 31.733 35.29 31.733 33.862C31.733 32.4113 31.5403 31.1193 31.155 29.986C30.7697 28.8527 30.237 27.8893 29.557 27.096C28.877 26.3027 28.0497 25.702 27.075 25.294C26.1003 24.8633 25.0123 24.648 23.811 24.648C22.6323 24.648 21.5557 24.8633 20.581 25.294C19.6063 25.702 18.779 26.3027 18.099 27.096C17.419 27.8893 16.8863 28.8527 16.501 29.986C16.1157 31.1193 15.923 32.4113 15.923 33.862ZM38.3914 46V21.69H42.2674V33.114L52.9434 21.69H57.7374L48.1494 32.06L58.3834 46H53.6574L45.4974 34.814L42.2674 38.18V46H38.3914Z" fill="black"/>
</svg>
