<svg width="291" height="82" viewBox="0 0 291 82" fill="none" xmlns="http://www.w3.org/2000/svg">
<path d="M26 12H12V67.5L34.5 80H51.5V72L68 80H83V72L96.5 80H114V72L128.5 80H143.5V72L158 80H173.5V72L187.5 80H202V72L216 80H230.5V72L246 80H260V72L275.5 80H289V25L263.5 12H250V20.5L234.5 12H220V20.5L204.5 12H191V20.5L177 12H162.5V20.5L148 12H133V20.5L117.5 12H102V20L84.5 12H71V20L56 12H41.5V20L26 12Z" fill="black" stroke="black" stroke-width="4"/>
<path d="M16 2H2V57.5L24.5 70H41.5V62L58 70H73V62L86.5 70H104V62L118.5 70H133.5V62L148 70H163.5V62L177.5 70H192V62L206 70H220.5V62L236 70H250V62L265.5 70H279V15L253.5 2H240V10.5L224.5 2H210V10.5L194.5 2H181V10.5L167 2H152.5V10.5L138 2H123V10.5L107.5 2H92V10L74.5 2H61V10L46 2H31.5V10L16 2Z" fill="#F6F6F6" stroke="black" stroke-width="4"/>
<path d="M21.1737 35.862C21.1737 33.9353 21.4457 32.2013 21.9897 30.66C22.5337 29.096 23.3043 27.77 24.3017 26.682C25.3217 25.594 26.5457 24.7553 27.9737 24.166C29.4017 23.554 30.9997 23.248 32.7677 23.248C34.2637 23.248 35.635 23.4633 36.8817 23.894C38.151 24.302 39.2617 24.9027 40.2137 25.696C41.1657 26.4893 41.9703 27.464 42.6277 28.62C43.285 29.776 43.7497 31.0907 44.0217 32.564H39.9077C39.477 30.6827 38.6383 29.232 37.3917 28.212C36.145 27.1693 34.581 26.648 32.6997 26.648C31.589 26.648 30.569 26.8633 29.6397 27.294C28.7103 27.7247 27.917 28.3367 27.2597 29.13C26.6023 29.9233 26.0923 30.8867 25.7297 32.02C25.367 33.1307 25.1857 34.4113 25.1857 35.862C25.1857 37.2673 25.367 38.5367 25.7297 39.67C26.0923 40.8033 26.6023 41.7667 27.2597 42.56C27.917 43.3533 28.7103 43.9653 29.6397 44.396C30.569 44.8267 31.6117 45.042 32.7677 45.042C34.717 45.042 36.315 44.4867 37.5617 43.376C38.831 42.2427 39.647 40.6447 40.0097 38.582H44.1237C43.897 40.146 43.4663 41.54 42.8317 42.764C42.197 43.9653 41.381 44.9853 40.3837 45.824C39.409 46.6627 38.2757 47.3087 36.9837 47.762C35.6917 48.2153 34.275 48.442 32.7337 48.442C30.9883 48.442 29.4017 48.1473 27.9737 47.558C26.5457 46.9687 25.3217 46.13 24.3017 45.042C23.3043 43.954 22.5337 42.6393 21.9897 41.098C21.4457 39.5567 21.1737 37.8113 21.1737 35.862ZM46.7568 48V23.69H50.6328V44.6H62.9748V48H46.7568ZM64.1893 39.33V23.69H68.0653V39.194C68.0653 41.0527 68.5866 42.492 69.6293 43.512C70.6946 44.532 72.1906 45.042 74.1173 45.042C76.0439 45.042 77.5286 44.532 78.5713 43.512C79.6139 42.492 80.1353 41.0527 80.1353 39.194V23.69H84.0453V39.33C84.0453 40.7353 83.8073 42.0047 83.3313 43.138C82.8553 44.2487 82.1866 45.2007 81.3253 45.994C80.4866 46.7647 79.4553 47.3653 78.2313 47.796C77.0073 48.2267 75.6359 48.442 74.1173 48.442C72.5759 48.442 71.1933 48.2267 69.9693 47.796C68.7679 47.3653 67.7366 46.7647 66.8753 45.994C66.0139 45.2007 65.3453 44.2487 64.8693 43.138C64.4159 42.0047 64.1893 40.7353 64.1893 39.33ZM87.3642 48V23.69H97.0882C100.171 23.69 102.449 24.2113 103.922 25.254C105.418 26.2967 106.166 27.9627 106.166 30.252C106.166 30.9547 106.053 31.6007 105.826 32.19C105.6 32.7793 105.282 33.3007 104.874 33.754C104.466 34.1847 103.956 34.5473 103.344 34.842C102.732 35.1367 102.041 35.3407 101.27 35.454C102.948 35.6807 104.308 36.2927 105.35 37.29C106.393 38.2647 106.914 39.602 106.914 41.302C106.914 43.546 106.166 45.2233 104.67 46.334C103.197 47.4447 101.021 48 98.1422 48H87.3642ZM91.2402 44.668H97.8362C99.4682 44.668 100.715 44.362 101.576 43.75C102.438 43.1153 102.868 42.186 102.868 40.962C102.868 39.738 102.438 38.7973 101.576 38.14C100.738 37.4827 99.4909 37.154 97.8362 37.154H91.2402V44.668ZM91.2402 34.094H96.7822C98.5049 34.094 99.8196 33.788 100.726 33.176C101.633 32.564 102.086 31.68 102.086 30.524C102.086 29.3453 101.644 28.4727 100.76 27.906C99.8989 27.3167 98.5729 27.022 96.7822 27.022H91.2402V34.094ZM115.819 48V23.69H126.121C129.023 23.69 131.199 24.3473 132.649 25.662C134.1 26.954 134.825 28.8127 134.825 31.238C134.825 33.6407 134.1 35.488 132.649 36.78C131.199 38.072 129.023 38.718 126.121 38.718H119.695V48H115.819ZM119.695 35.318H125.883C127.515 35.318 128.739 35.0007 129.555 34.366C130.394 33.7313 130.813 32.6887 130.813 31.238C130.813 29.7647 130.394 28.7107 129.555 28.076C128.739 27.4187 127.515 27.09 125.883 27.09H119.695V35.318ZM136.621 35.862C136.621 33.9353 136.904 32.19 137.471 30.626C138.038 29.062 138.842 27.736 139.885 26.648C140.928 25.56 142.174 24.7213 143.625 24.132C145.098 23.5427 146.73 23.248 148.521 23.248C150.312 23.248 151.944 23.5427 153.417 24.132C154.89 24.7213 156.148 25.56 157.191 26.648C158.234 27.736 159.038 29.062 159.605 30.626C160.172 32.19 160.455 33.9353 160.455 35.862C160.455 37.8113 160.172 39.568 159.605 41.132C159.038 42.6733 158.234 43.988 157.191 45.076C156.171 46.164 154.913 47.0027 153.417 47.592C151.944 48.1587 150.312 48.442 148.521 48.442C146.73 48.442 145.098 48.1587 143.625 47.592C142.152 47.0027 140.894 46.164 139.851 45.076C138.831 43.9653 138.038 42.6393 137.471 41.098C136.904 39.5567 136.621 37.8113 136.621 35.862ZM140.633 35.862C140.633 37.2673 140.814 38.548 141.177 39.704C141.562 40.8373 142.095 41.8007 142.775 42.594C143.478 43.3873 144.305 43.9993 145.257 44.43C146.232 44.838 147.32 45.042 148.521 45.042C149.722 45.042 150.81 44.838 151.785 44.43C152.76 43.9993 153.587 43.3873 154.267 42.594C154.97 41.8007 155.502 40.8373 155.865 39.704C156.25 38.5707 156.443 37.29 156.443 35.862C156.443 34.4113 156.25 33.1193 155.865 31.986C155.48 30.8527 154.947 29.8893 154.267 29.096C153.587 28.3027 152.76 27.702 151.785 27.294C150.81 26.8633 149.722 26.648 148.521 26.648C147.342 26.648 146.266 26.8633 145.291 27.294C144.316 27.702 143.489 28.3027 142.809 29.096C142.129 29.8893 141.596 30.8527 141.211 31.986C140.826 33.1193 140.633 34.4113 140.633 35.862ZM163.067 48V23.69H166.943V44.6H179.285V48H163.067ZM181.861 48V23.69H185.737V48H181.861ZM195.831 48V27.09H188.011V23.69H207.527V27.09H199.707V48H195.831ZM209.851 48V23.69H213.727V48H209.851ZM216.342 35.862C216.342 33.9353 216.614 32.2013 217.158 30.66C217.702 29.096 218.472 27.77 219.47 26.682C220.49 25.594 221.714 24.7553 223.142 24.166C224.57 23.554 226.168 23.248 227.936 23.248C229.432 23.248 230.803 23.4633 232.05 23.894C233.319 24.302 234.43 24.9027 235.382 25.696C236.334 26.4893 237.138 27.464 237.796 28.62C238.453 29.776 238.918 31.0907 239.19 32.564H235.076C234.645 30.6827 233.806 29.232 232.56 28.212C231.313 27.1693 229.749 26.648 227.868 26.648C226.757 26.648 225.737 26.8633 224.808 27.294C223.878 27.7247 223.085 28.3367 222.428 29.13C221.77 29.9233 221.26 30.8867 220.898 32.02C220.535 33.1307 220.354 34.4113 220.354 35.862C220.354 37.2673 220.535 38.5367 220.898 39.67C221.26 40.8033 221.77 41.7667 222.428 42.56C223.085 43.3533 223.878 43.9653 224.808 44.396C225.737 44.8267 226.78 45.042 227.936 45.042C229.885 45.042 231.483 44.4867 232.73 43.376C233.999 42.2427 234.815 40.6447 235.178 38.582H239.292C239.065 40.146 238.634 41.54 238 42.764C237.365 43.9653 236.549 44.9853 235.552 45.824C234.577 46.6627 233.444 47.3087 232.152 47.762C230.86 48.2153 229.443 48.442 227.902 48.442C226.156 48.442 224.57 48.1473 223.142 47.558C221.714 46.9687 220.49 46.13 219.47 45.042C218.472 43.954 217.702 42.6393 217.158 41.098C216.614 39.5567 216.342 37.8113 216.342 35.862ZM240.47 39.534H244.482C244.573 40.3953 244.777 41.1773 245.094 41.88C245.434 42.56 245.876 43.138 246.42 43.614C246.964 44.09 247.61 44.4527 248.358 44.702C249.106 44.9287 249.956 45.042 250.908 45.042C251.701 45.042 252.415 44.9627 253.05 44.804C253.707 44.6453 254.251 44.4073 254.682 44.09C255.135 43.75 255.475 43.3533 255.702 42.9C255.951 42.424 256.076 41.9027 256.076 41.336C256.076 40.656 255.929 40.1007 255.634 39.67C255.339 39.2167 254.909 38.8427 254.342 38.548C253.798 38.2533 253.129 38.0153 252.336 37.834C251.543 37.63 250.659 37.426 249.684 37.222C248.528 36.9953 247.429 36.7347 246.386 36.44C245.343 36.1453 244.425 35.7487 243.632 35.25C242.839 34.7513 242.204 34.1167 241.728 33.346C241.252 32.5527 241.014 31.5553 241.014 30.354C241.014 29.2887 241.218 28.3253 241.626 27.464C242.034 26.58 242.612 25.832 243.36 25.22C244.131 24.5853 245.06 24.098 246.148 23.758C247.259 23.418 248.494 23.248 249.854 23.248C251.373 23.248 252.721 23.4633 253.9 23.894C255.079 24.3247 256.076 24.914 256.892 25.662C257.731 26.41 258.388 27.3053 258.864 28.348C259.34 29.368 259.612 30.4787 259.68 31.68H255.668C255.577 30.9547 255.385 30.286 255.09 29.674C254.818 29.062 254.433 28.5293 253.934 28.076C253.435 27.6227 252.835 27.2713 252.132 27.022C251.452 26.7727 250.681 26.648 249.82 26.648C249.117 26.648 248.471 26.7387 247.882 26.92C247.293 27.0787 246.783 27.328 246.352 27.668C245.944 27.9853 245.627 28.3593 245.4 28.79C245.173 29.2207 245.06 29.708 245.06 30.252C245.06 30.8867 245.219 31.4193 245.536 31.85C245.876 32.258 246.318 32.598 246.862 32.87C247.429 33.142 248.086 33.3687 248.834 33.55C249.582 33.7313 250.387 33.9127 251.248 34.094C252.495 34.3433 253.651 34.6267 254.716 34.944C255.804 35.2387 256.745 35.6467 257.538 36.168C258.354 36.6893 258.977 37.3467 259.408 38.14C259.861 38.9333 260.088 39.9307 260.088 41.132C260.088 42.2653 259.861 43.2853 259.408 44.192C258.977 45.0987 258.354 45.8693 257.538 46.504C256.722 47.116 255.747 47.592 254.614 47.932C253.481 48.272 252.234 48.442 250.874 48.442C249.265 48.442 247.825 48.2267 246.556 47.796C245.309 47.3653 244.244 46.7533 243.36 45.96C242.476 45.1667 241.785 44.226 241.286 43.138C240.787 42.05 240.515 40.8487 240.47 39.534Z" fill="black"/>
</svg>
