<svg width="130" height="68" viewBox="0 0 130 68" fill="none" xmlns="http://www.w3.org/2000/svg">
<path d="M13.1793 2H2V52.9673L25.0573 66H36.9353V54.5964L54.8688 66H66.7468V54.5964L84.2144 66H96.3253V54.5964L116.821 66H128V14.3345L103.079 2H91.9002V11.0764L72.3364 2H60.9242V11.0764L42.9908 2H31.3457V11.0764L13.1793 2Z" fill="#F6F6F6" stroke="black" stroke-width="4"/>
<path d="M21.5823 37.534H25.5943C25.6849 38.3953 25.8889 39.1773 26.2063 39.88C26.5463 40.56 26.9883 41.138 27.5323 41.614C28.0763 42.09 28.7223 42.4527 29.4703 42.702C30.2183 42.9287 31.0683 43.042 32.0203 43.042C32.8136 43.042 33.5276 42.9627 34.1623 42.804C34.8196 42.6453 35.3636 42.4073 35.7943 42.09C36.2476 41.75 36.5876 41.3533 36.8143 40.9C37.0636 40.424 37.1883 39.9027 37.1883 39.336C37.1883 38.656 37.0409 38.1007 36.7463 37.67C36.4516 37.2167 36.0209 36.8427 35.4543 36.548C34.9103 36.2533 34.2416 36.0153 33.4483 35.834C32.6549 35.63 31.7709 35.426 30.7963 35.222C29.6403 34.9953 28.5409 34.7347 27.4983 34.44C26.4556 34.1453 25.5376 33.7487 24.7443 33.25C23.9509 32.7513 23.3163 32.1167 22.8403 31.346C22.3643 30.5527 22.1263 29.5553 22.1263 28.354C22.1263 27.2887 22.3303 26.3253 22.7383 25.464C23.1463 24.58 23.7243 23.832 24.4723 23.22C25.2429 22.5853 26.1723 22.098 27.2603 21.758C28.3709 21.418 29.6063 21.248 30.9663 21.248C32.4849 21.248 33.8336 21.4633 35.0123 21.894C36.1909 22.3247 37.1883 22.914 38.0043 23.662C38.8429 24.41 39.5003 25.3053 39.9763 26.348C40.4523 27.368 40.7243 28.4787 40.7923 29.68H36.7803C36.6896 28.9547 36.4969 28.286 36.2023 27.674C35.9303 27.062 35.5449 26.5293 35.0463 26.076C34.5476 25.6227 33.9469 25.2713 33.2443 25.022C32.5643 24.7727 31.7936 24.648 30.9323 24.648C30.2296 24.648 29.5836 24.7387 28.9943 24.92C28.4049 25.0787 27.8949 25.328 27.4643 25.668C27.0563 25.9853 26.7389 26.3593 26.5123 26.79C26.2856 27.2207 26.1723 27.708 26.1723 28.252C26.1723 28.8867 26.3309 29.4193 26.6483 29.85C26.9883 30.258 27.4303 30.598 27.9743 30.87C28.5409 31.142 29.1983 31.3687 29.9463 31.55C30.6943 31.7313 31.4989 31.9127 32.3603 32.094C33.6069 32.3433 34.7629 32.6267 35.8283 32.944C36.9163 33.2387 37.8569 33.6467 38.6503 34.168C39.4663 34.6893 40.0896 35.3467 40.5203 36.14C40.9736 36.9333 41.2003 37.9307 41.2003 39.132C41.2003 40.2653 40.9736 41.2853 40.5203 42.192C40.0896 43.0987 39.4663 43.8693 38.6503 44.504C37.8343 45.116 36.8596 45.592 35.7263 45.932C34.5929 46.272 33.3463 46.442 31.9863 46.442C30.3769 46.442 28.9376 46.2267 27.6683 45.796C26.4216 45.3653 25.3563 44.7533 24.4723 43.96C23.5883 43.1667 22.8969 42.226 22.3983 41.138C21.8996 40.05 21.6276 38.8487 21.5823 37.534ZM43.5566 46V21.69H60.2846V25.09H47.4326V32.128H59.7066V35.46H47.4326V42.6H60.4546V46H43.5566ZM63.3133 46V21.69H68.1413L80.0413 41.172V21.69H83.9173V46H78.8853L67.1893 27.028V46H63.3133ZM87.2851 46V21.69H95.4791C99.5138 21.69 102.608 22.7327 104.761 24.818C106.914 26.9033 107.991 29.9067 107.991 33.828C107.991 37.772 106.914 40.7867 104.761 42.872C102.608 44.9573 99.5138 46 95.4791 46H87.2851ZM91.1611 42.6H95.4791C98.2898 42.6 100.398 41.886 101.803 40.458C103.231 39.0073 103.945 36.7973 103.945 33.828C103.945 30.8587 103.242 28.66 101.837 27.232C100.432 25.804 98.3125 25.09 95.4791 25.09H91.1611V42.6Z" fill="black"/>
</svg>
