<svg width="697" height="24" viewBox="0 0 697 24" fill="none" xmlns="http://www.w3.org/2000/svg">
<path d="M695.672 17.2292L666.453 2H653.75V19.8906L620.271 2.36979H607.614V17.2292L578.521 2H565.87V19.7396L532.547 2.36979H519.844V17.5625L490.698 2.36979H477.989V17.2292L448.771 2H436.068L435.484 19.8906L402.005 2.36979H389.354V17.2292L360.26 2H347.604V19.7396L314.286 2.36979H301.578V17.5625L272.432 2.36979H259.729V17.2292L230.51 2H217.802V19.8906L184.323 2.36979H171.672V17.2292L142.578 2H129.922V19.7396L96.604 2.36979H83.8957V17.5625L54.755 2.36979H42.0467V17.2292L12.828 2H0.119629" stroke="black" stroke-width="4" stroke-miterlimit="10"/>
</svg>
