<svg width="280" height="103" viewBox="0 0 280 103" fill="none" xmlns="http://www.w3.org/2000/svg">
<path d="M247.222 12H233.835V27.6366L203.057 12H189.665V27.6366L158.887 12H145.5V27.6366L114.722 12H101.335V27.6366L70.5572 12H57.1648V27.6366L26.3867 12H13V85.3634L43.7781 101H57.1648V85.3634L87.9485 101H101.335V85.3634L132.113 101H145.5V85.3634L176.278 101H189.665V85.3634L220.449 101H233.835V85.3634L264.613 101H278V27.6366L247.222 12Z" fill="black" stroke="black" stroke-width="3.98933" stroke-miterlimit="10"/>
<path d="M236.222 2H222.835V17.6366L192.057 2H178.665V17.6366L147.887 2H134.5V17.6366L103.722 2H90.3352V17.6366L59.5572 2H46.1648V17.6366L15.3867 2H2V75.3634L32.7781 91H46.1648V75.3634L76.9485 91H90.3352V75.3634L121.113 91H134.5V75.3634L165.278 91H178.665V75.3634L209.449 91H222.835V75.3634L253.613 91H267V17.6366L236.222 2Z" fill="#F5F5F5" stroke="black" stroke-width="3.98933" stroke-miterlimit="10"/>
<path d="M62.3743 50.534H66.3863C66.4769 51.3953 66.6809 52.1773 66.9983 52.88C67.3383 53.56 67.7803 54.138 68.3243 54.614C68.8683 55.09 69.5143 55.4527 70.2623 55.702C71.0103 55.9287 71.8603 56.042 72.8123 56.042C73.6056 56.042 74.3196 55.9627 74.9543 55.804C75.6116 55.6453 76.1556 55.4073 76.5863 55.09C77.0396 54.75 77.3796 54.3533 77.6063 53.9C77.8556 53.424 77.9803 52.9027 77.9803 52.336C77.9803 51.656 77.8329 51.1007 77.5383 50.67C77.2436 50.2167 76.8129 49.8427 76.2463 49.548C75.7023 49.2533 75.0336 49.0153 74.2403 48.834C73.4469 48.63 72.5629 48.426 71.5883 48.222C70.4323 47.9953 69.3329 47.7347 68.2903 47.44C67.2476 47.1453 66.3296 46.7487 65.5363 46.25C64.7429 45.7513 64.1083 45.1167 63.6323 44.346C63.1563 43.5527 62.9183 42.5553 62.9183 41.354C62.9183 40.2887 63.1223 39.3253 63.5303 38.464C63.9383 37.58 64.5163 36.832 65.2643 36.22C66.0349 35.5853 66.9643 35.098 68.0523 34.758C69.1629 34.418 70.3983 34.248 71.7583 34.248C73.2769 34.248 74.6256 34.4633 75.8043 34.894C76.9829 35.3247 77.9803 35.914 78.7963 36.662C79.6349 37.41 80.2923 38.3053 80.7683 39.348C81.2443 40.368 81.5163 41.4787 81.5843 42.68H77.5723C77.4816 41.9547 77.2889 41.286 76.9943 40.674C76.7223 40.062 76.3369 39.5293 75.8383 39.076C75.3396 38.6227 74.7389 38.2713 74.0363 38.022C73.3563 37.7727 72.5856 37.648 71.7243 37.648C71.0216 37.648 70.3756 37.7387 69.7863 37.92C69.1969 38.0787 68.6869 38.328 68.2563 38.668C67.8483 38.9853 67.5309 39.3593 67.3043 39.79C67.0776 40.2207 66.9643 40.708 66.9643 41.252C66.9643 41.8867 67.1229 42.4193 67.4403 42.85C67.7803 43.258 68.2223 43.598 68.7663 43.87C69.3329 44.142 69.9903 44.3687 70.7383 44.55C71.4863 44.7313 72.2909 44.9127 73.1523 45.094C74.3989 45.3433 75.5549 45.6267 76.6203 45.944C77.7083 46.2387 78.6489 46.6467 79.4423 47.168C80.2583 47.6893 80.8816 48.3467 81.3123 49.14C81.7656 49.9333 81.9923 50.9307 81.9923 52.132C81.9923 53.2653 81.7656 54.2853 81.3123 55.192C80.8816 56.0987 80.2583 56.8693 79.4423 57.504C78.6263 58.116 77.6516 58.592 76.5183 58.932C75.3849 59.272 74.1383 59.442 72.7783 59.442C71.1689 59.442 69.7296 59.2267 68.4603 58.796C67.2136 58.3653 66.1483 57.7533 65.2643 56.96C64.3803 56.1667 63.6889 55.226 63.1903 54.138C62.6916 53.05 62.4196 51.8487 62.3743 50.534ZM84.3486 59V34.69H88.2246V45.06H100.023V34.69H103.933V59H100.023V48.46H88.2246V59H84.3486ZM107.293 50.33V34.69H111.169V50.194C111.169 52.0527 111.69 53.492 112.733 54.512C113.798 55.532 115.294 56.042 117.221 56.042C119.147 56.042 120.632 55.532 121.675 54.512C122.717 53.492 123.239 52.0527 123.239 50.194V34.69H127.149V50.33C127.149 51.7353 126.911 53.0047 126.435 54.138C125.959 55.2487 125.29 56.2007 124.429 56.994C123.59 57.7647 122.559 58.3653 121.335 58.796C120.111 59.2267 118.739 59.442 117.221 59.442C115.679 59.442 114.297 59.2267 113.073 58.796C111.871 58.3653 110.84 57.7647 109.979 56.994C109.117 56.2007 108.449 55.2487 107.973 54.138C107.519 53.0047 107.293 51.7353 107.293 50.33ZM130.468 59V34.69H146.856V38.09H134.344V45.468H146.312V48.8H134.344V59H130.468ZM149.394 59V34.69H165.782V38.09H153.27V45.468H165.238V48.8H153.27V59H149.394ZM168.319 59V34.69H172.195V55.6H184.537V59H168.319ZM187.079 59V34.69H203.807V38.09H190.955V45.128H203.229V48.46H190.955V55.6H203.977V59H187.079Z" fill="#020202"/>
</svg>
