<svg width="130" height="68" viewBox="0 0 130 68" fill="none" xmlns="http://www.w3.org/2000/svg">
<path d="M13.1793 2H2V52.9673L25.0573 66H36.9353V54.5964L54.8688 66H66.7468V54.5964L84.2144 66H96.3253V54.5964L116.821 66H128V14.3345L103.079 2H91.9002V11.0764L72.3364 2H60.9242V11.0764L42.9908 2H31.3457V11.0764L13.1793 2Z" fill="black" stroke="black" stroke-width="4"/>
<path d="M13.1793 2H2V52.9673L25.0573 66H36.9353V54.5964L54.8688 66H66.7468V54.5964L84.2144 66H96.3253V54.5964L116.821 66H128V14.3345L103.079 2H91.9002V11.0764L72.3364 2H60.9242V11.0764L42.9908 2H31.3457V11.0764L13.1793 2Z" fill="#F6F6F6" stroke="black" stroke-width="4"/>
<path d="M15.2737 37.534H19.2857C19.3763 38.3953 19.5803 39.1773 19.8977 39.88C20.2377 40.56 20.6797 41.138 21.2237 41.614C21.7677 42.09 22.4137 42.4527 23.1617 42.702C23.9097 42.9287 24.7597 43.042 25.7117 43.042C26.505 43.042 27.219 42.9627 27.8537 42.804C28.511 42.6453 29.055 42.4073 29.4857 42.09C29.939 41.75 30.279 41.3533 30.5057 40.9C30.755 40.424 30.8797 39.9027 30.8797 39.336C30.8797 38.656 30.7323 38.1007 30.4377 37.67C30.143 37.2167 29.7123 36.8427 29.1457 36.548C28.6017 36.2533 27.933 36.0153 27.1397 35.834C26.3463 35.63 25.4623 35.426 24.4877 35.222C23.3317 34.9953 22.2323 34.7347 21.1897 34.44C20.147 34.1453 19.229 33.7487 18.4357 33.25C17.6423 32.7513 17.0077 32.1167 16.5317 31.346C16.0557 30.5527 15.8177 29.5553 15.8177 28.354C15.8177 27.2887 16.0217 26.3253 16.4297 25.464C16.8377 24.58 17.4157 23.832 18.1637 23.22C18.9343 22.5853 19.8637 22.098 20.9517 21.758C22.0623 21.418 23.2977 21.248 24.6577 21.248C26.1763 21.248 27.525 21.4633 28.7037 21.894C29.8823 22.3247 30.8797 22.914 31.6957 23.662C32.5343 24.41 33.1917 25.3053 33.6677 26.348C34.1437 27.368 34.4157 28.4787 34.4837 29.68H30.4717C30.381 28.9547 30.1883 28.286 29.8937 27.674C29.6217 27.062 29.2363 26.5293 28.7377 26.076C28.239 25.6227 27.6383 25.2713 26.9357 25.022C26.2557 24.7727 25.485 24.648 24.6237 24.648C23.921 24.648 23.275 24.7387 22.6857 24.92C22.0963 25.0787 21.5863 25.328 21.1557 25.668C20.7477 25.9853 20.4303 26.3593 20.2037 26.79C19.977 27.2207 19.8637 27.708 19.8637 28.252C19.8637 28.8867 20.0223 29.4193 20.3397 29.85C20.6797 30.258 21.1217 30.598 21.6657 30.87C22.2323 31.142 22.8897 31.3687 23.6377 31.55C24.3857 31.7313 25.1903 31.9127 26.0517 32.094C27.2983 32.3433 28.4543 32.6267 29.5197 32.944C30.6077 33.2387 31.5483 33.6467 32.3417 34.168C33.1577 34.6893 33.781 35.3467 34.2117 36.14C34.665 36.9333 34.8917 37.9307 34.8917 39.132C34.8917 40.2653 34.665 41.2853 34.2117 42.192C33.781 43.0987 33.1577 43.8693 32.3417 44.504C31.5257 45.116 30.551 45.592 29.4177 45.932C28.2843 46.272 27.0377 46.442 25.6777 46.442C24.0683 46.442 22.629 46.2267 21.3597 45.796C20.113 45.3653 19.0477 44.7533 18.1637 43.96C17.2797 43.1667 16.5883 42.226 16.0897 41.138C15.591 40.05 15.319 38.8487 15.2737 37.534ZM42.7191 46V25.09H34.8991V21.69H54.4151V25.09H46.5951V46H42.7191ZM64.2063 46V36.786L55.2303 21.69H59.6843L66.1443 33.114L72.6043 21.69H77.0583L68.0823 36.786V46H64.2063ZM78.4199 46V21.69H82.2959V42.6H94.6379V46H78.4199ZM97.1797 46V21.69H113.908V25.09H101.056V32.128H113.33V35.46H101.056V42.6H114.078V46H97.1797Z" fill="black"/>
</svg>
