<?xml version="1.0" encoding="UTF-8"?>
<svg id="Calque_1" data-name="Calque 1" xmlns="http://www.w3.org/2000/svg" viewBox="0 0 1920 1080">
  <path d="M981.56,254.4l-29.25-24.01-129.82-2.91-39.73,22.56-49.48-23.72-132.87-1.6-19.5,23.43-73.2-23.72-135.35-1.46-.15,21.39-76.55-21.39-133.81-.15.19,678.59,133.33-.4,76.68-24.7.17,24.09,134.85-.59,74.17-27.46,18.18,26.96,134.66-1.27,47.9-27.62,39.92,26.33,130.34-2.81,28.7-27.4,61.71,25.89.05-660.15-61.12,22.12ZM372.21,828.97c-21.5,26.34-57.34,50.67-77.68,59.51l-119.94.39.27-652.94,120.79.35,76.49,20.2.06,572.49ZM598.15,668.93c-2.98,60.2-11.72,143.67-16.25,149.87-31.5,43.17-56.61,60.12-74.66,68.06l-122.7,1.12-.88-652,122.15.92,75.09,23.7,18.77-21.76-1.53,430.1ZM733.72,292.39c-87.78,59.35-118.79,189.77-125.32,320.29V237.96s124.73,1.02,124.73,1.02l49.32,23.48c-27.5,4.34-33.08,9.24-48.74,29.93ZM950.85,293.12c-71.48,50.11-120.99,143.48-127.87,318.51l-.78-371.04,130.13,1.64,26.75,22.08c-20.52,6.11-28.23,28.82-28.23,28.82Z"/>
</svg>