<?xml version="1.0" encoding="UTF-8"?>
<svg id="Calque_1" data-name="Calque 1" xmlns="http://www.w3.org/2000/svg" viewBox="0 0 1920 1080">
  <path d="M1353.48,217.37h-12.1l-72.03,3-303.11-3-145.69,3-250.5-3h-12.21l-123.54,3-272.65-3v676.38l272.65-3,123.54,3h12.21l250.5-3,124.64,3,324.17-3,72.03,3h12.1l280.59-3,115.6,3V217.37l-115.6,3-280.59-3ZM1601.29,231.09c-175.52,35.25-232.65,160.83-247.81,375.99V229.81l247.81,1.28ZM1214.19,232c-214.38,42.18-234.22,215.14-251.26,375.08V229.81h3.31l247.96,2.19ZM174.06,881.31V229.81l260.23,3,123.54-3v233.88c0,43.07-2.97,86.11-9.34,128.7-19.07,127.53-61.74,213.89-157.22,260.38-39.17,19.07-82.31,28.54-125.86,28.54h-91.35ZM570.04,881.31V229.81l250.5,3,130.27-3v319.4c0,46.54-6.85,92.9-21.11,137.2-24.84,77.18-66.5,132.51-136.45,166.49-39.09,18.99-82.12,28.41-125.57,28.41h-97.64Z"/>
</svg>