<?xml version="1.0" encoding="UTF-8"?>
<svg id="Calque_1" data-name="Calque 1" xmlns="http://www.w3.org/2000/svg" viewBox="0 0 1920 1080">
  <path d="M1011.49,244.56l-44.32-23.92h-133.39s-35.36,23.74-35.36,23.74l-57.77-24.22-133.47-.08-18.14,23.98-78.87-23.21-133.69-.54-.1,22.43-81.04-22.78-133.54-.04.06,678.83,133.08-.32,81.21-24.96.17,24.09,133.59.48,78.83-26.76,18.65,26.96,132.91.51,57.81-27.29,35.43,26.96,132.91.17,44.59-27.12,54.08,26.96.31-678.1-53.92,24.24ZM376.31,823.32c-20.68,27.31-61.38,54.8-81.71,61.71l-119.86,1.19-.78-652.6,121.38-.34,80.98,21.58v568.46ZM605.98,668.03c-3.05,60.2-12.2,144.1-17.03,150.17-34.71,43.6-60.35,58.96-78.87,66.9l-122.5.77.5-652.56h120.15l80.8,23.19,18.14-21.66-1.19,433.19ZM739.4,288.3c-85.14,62.04-116.52,189.57-123.22,320.09l-.86-374.43,125.31-.28,57.47,23.13c-28.21,4.34-42.64,10.8-58.7,31.5ZM965.61,284.65c-73.33,50.11-123.34,151.38-130.4,326.41l-.26-377.91,132.18.61,40.16,21.11c-29.79,5.72-41.68,29.79-41.68,29.79Z"/>
</svg>