<?xml version="1.0" encoding="UTF-8"?>
<svg id="Calque_1" data-name="Calque 1" xmlns="http://www.w3.org/2000/svg" viewBox="0 0 1920 1080">
  <path d="M1155.16,240.79l-54.86-22.3-134.24-.06-65.91,21.68-69.23-21.89-136.05-.25-45.94,22.4-91.97-22.42-134.39.42-19.06,22-107.45-22.92-134.43-.08v678.38l133.85-.07,106.78-25.21,20.06,25.21,134.14-.15,91.71-24.05,46.69,24.08,135.31.4,69.78-24.66,66.4,24.29,132.51.47,55.56-24.12,86.11,23.81V217.37l-85.38,23.42ZM421.48,592.92c-4.21,152.62-14.15,215.75-20.56,222.27-36.32,36.86-81.58,60.17-105.83,67.08l-121.62,1.04V230.81l122.61-.06,107.44,22.06,19.31-21-.32,232.54c-.06,48.64.19,84.22-1.04,128.57ZM687.4,682.18c-10.13,88.35-23.26,135.9-79.42,172.95-27.16,17.91-29.42,19.27-51.51,27.21l-121.39-.03-.57-651.49,122.45-.19,91.97,22.19,45.94-21.08,1.12,317.48c0,46.54-3.05,84.74-8.59,132.97ZM821.24,292.62c-85.14,65.45-109.41,185.25-117.4,315.77l.02-377.33,127.04.68,68.88,20.8c-33.66,4.34-60.56,18.85-78.53,40.09ZM1096.06,283.61c-76.14,54.95-120.03,150.03-128.46,325.06l-.14-377.73,132.07,1.11,50.82,19.64c-36.71,6.76-54.28,31.93-54.28,31.93Z"/>
</svg>