<?xml version="1.0" encoding="UTF-8"?>
<svg id="Calque_1" data-name="Calque 1" xmlns="http://www.w3.org/2000/svg" viewBox="0 0 1920 1080">
  <path d="M1051.17,242.82l-46.98-24.06-134.6.96-43.91,22.93-60.84-23.63-133.34.44-26.21,23.51-85.34-24.29-131.24.5.07,23.48-93.65-24.02-133.24-.26-.26,632.97s.03,13.29.03,45.35l134.93.18,92.11-26.77v26.03l133.51.83,83.14-25.85,25.96,25.76,133.89.15,60.79-26.51,44.53,26.81,132.28-.15,47.17-26.22,62.84,26.07.04-637.25v-42.4l-61.7,25.45ZM388.72,583.22v230.72c-17.36,27.51-71.09,62.61-92.47,69.52l-121.68,1.48-.36-653.12,120.94.12,93.58,22.83v328.45ZM626.86,682.03c-5.04,59.44-10.07,118.88-20.82,133.66-36.19,49.76-64.33,60.13-83.81,68.07l-121.65.67.12-652.53,119.26-.55,85.34,24.06,26.21-22.19-.1,313.96c0,46.54-.45,86.55-4.55,134.85ZM765.43,285.73c-87.2,61.8-118.7,192.14-125.74,322.66l-.19-376.28,125.33.42,60.53,22.54c-29.67,4.34-43.03,9.97-59.92,30.66ZM1003.17,282.26c-75.16,51.08-123.51,151.38-130.94,326.41l-1.41-376.45,132.68.09,43.41,21.4c-32.12,5.99-43.75,28.55-43.75,28.55Z"/>
</svg>