<?xml version="1.0" encoding="UTF-8"?>
<svg id="Calque_1" data-name="Calque 1" xmlns="http://www.w3.org/2000/svg" viewBox="0 0 1920 1080">
  <path d="M1179.47,218.23l-101.51,15.13-101.69-16.01h-131.6s-91.85,16.01-91.85,16.01l-118.66-15.42-130.78-.58-74.74,16-127.16-15.92-139.85-.08v677.38l139.86.2,124.76-18.2,76.13,18,131.78-.22,116.2-17.78,98.15,19,127.73-.79,101.26-18.21,112.76,19,128.97-.95,83.87-17.05,128.35,16V217.37l-128.89,16-82.15-15.88-140.95.74ZM1394.52,244.97c-46.61,6.76-75.09,35.44-75.09,35.44-81.08,58.38-121.03,151.64-131.73,326.67V229.81l131.73.24,75.09,14.93ZM1071.67,245.41c-36.94,6.15-70.02,18.54-95.43,39.68-94.25,71.1-113.28,191.46-123.42,321.98V229.81h2.85l120.57.05,95.43,15.55ZM174.35,881.31V229.81l127.14.94,127.15,15.06,71.74-16v233.88c0,43.07-.03,86.05-5.06,128.7-17.78,150.92-28.91,209.06-111.27,255.55-33.79,19.07-68,33.73-111.77,33.43l-97.94-.06ZM512.92,881.31V229.81l121.25.81,118.66,15.19,89.54-16v319.4c0,46.54-6.94,88.02-15.3,133.25-15.35,82.97-59.1,136.2-119.43,170.18-33.72,18.99-39.15,20.76-73.46,28.7l-121.25-.03Z"/>
</svg>