<?xml version="1.0" encoding="UTF-8"?>
<svg id="Calque_1" data-name="Calque 1" xmlns="http://www.w3.org/2000/svg" viewBox="0 0 1920 1080">
  <path d="M1099.72,241.75l-51.16-22.99-133.19-.33-54.8,22.87-65.48-23.02-133.83-.31-35.24,23.83-89.1-23.28-131.88-.15-9.27,23.49-100.59-24.15-133.55-.35v678.38l133.67.9,99.64-26.85,9.96,25.88,132.9.39,87.44-25.45,36.03,24.94,133.5.92,65.48-25.86,55.4,24.97,133.43.07,50.49-24.42,72.99,24.52V217.37l-72.84,24.38ZM404.11,592.92c-2.92,135.78-2.6,197.93-8.54,218.67-14.59,27.45-77.91,64.73-100.63,71.64l-120.22,1.07V230.81l120.48.21,100.58,23.29,8.51-21.49-.22,231.53c-.05,48.64,1.07,80.43.03,128.57ZM654.28,682.18c-9.49,88.35-8.72,130.77-62.7,168.95-25.41,17.97-33.08,23.81-53.78,31.75l-119.95-.57-1.36-651.45,120.43.35,89.1,23.05,35.24-22.52,1.05,317.48c0,46.54-2.86,84.74-8.04,132.97ZM795.46,285.1c-88.34,63.07-118.29,192.77-125.78,323.29l.02-377.33,125.38.74,65.15,21.93c-31.54,4.34-46.81,10.68-64.77,31.37ZM1049.06,280.43c-77.65,52.13-124.35,153.21-132.24,328.24l-.13-377.73,131.15,1.37,47.37,20.33c-34.14,5.99-46.14,27.78-46.14,27.78Z"/>
</svg>