<?xml version="1.0" encoding="UTF-8"?>
<svg id="Calque_1" data-name="Calque 1" xmlns="http://www.w3.org/2000/svg" viewBox="0 0 1920 1080">
  <path d="M1336.63,217.37h-11.93l-71.01,6-199.85-6.01h-98.98s-143.64,6.01-143.64,6.01l-140.68-5.42-106.28-.58h-12.04l-121.8,6-130.67-4.92-138.13-1.08v676.38l125.42.2,143.37-6.2,121.8,6h12.04l125.51-.05,121.45-5.95,122.88,6,95.55,1.21,224.04-7.21,71.01,6h11.93l89.86,1.05,186.77-7.05,113.97,6V217.37l-113.97,6-178.66-5.88-97.96-.12ZM1577.7,235.38c-173.04,35.25-226.12,156.54-241.07,371.7V229.81l96.84.24,144.23,5.33ZM1199.32,235.23c-215.09,41.37-230.91,211.91-247.71,371.85V229.81h3.26l101.61.25,142.84,5.16ZM173.89,881.31V229.81l125.89.94,130.67,5.06,121.8-6v233.88c0,43.07-2.93,86.11-9.21,128.7-18.8,127.53-50.83,210.99-144.97,257.48-38.62,19.07-91.18,31.44-134.11,31.44h-90.06ZM564.27,881.31V229.81l115.72.81,131.24,5.19,128.42-6v319.4c0,46.54-6.76,92.9-20.81,137.2-24.49,77.18-65.56,132.51-134.52,166.49-38.54,18.99-80.96,28.41-123.79,28.41h-96.26Z"/>
</svg>