<?xml version="1.0" encoding="UTF-8"?>
<svg id="Calque_1" data-name="Calque 1" xmlns="http://www.w3.org/2000/svg" viewBox="0 0 1920 1080">
  <path d="M899.88,273.47v-13.87l-102.37-13.53-66.07,17.81-8.84-23.71-128.75-6.96-32.54,20.31-53.67-24.25-138.37-5.6.23,21.4-75.4-22.68-132.25.41.17,678.59,133.99-.52,72.89-25.29.15,24.09,138.05-5.61,54.72-27.88,31.1,24.35,129.73-9.24,8-25.59,67.53,20.08,102.19-15.11.18-17.24,55.41,6.4-.96-580.66-55.12,4.29ZM369.19,827.76c-19.39,26.34-55.6,51.76-73.93,60.59l-120.92.51.25-652.94,119.52-.21,75.34,21.49-.25,570.56ZM591.66,638.71c-2.68,60.2-18.04,143.5-20.42,150.53-16.35,48.34-47.7,83.94-63.98,91.88l-125.03,6.07-.38-649.62,124.09,4.18,55.99,24.42,30.88-20.31-1.16,392.85ZM723.21,303.56c-86.89,57.7-115.08,186.4-120.96,316.92l-.99-374.72,121.89,6.48,7.31,19.37c-4.21,7.15-7.76,22.02-7.25,31.95ZM873.14,339.87c-35.96,44.89-60.29,96.58-75.25,267.78v-349.17s101.99,13.46,101.99,13.46v43.64c-12.87,6.44-26.74,24.29-26.74,24.29Z"/>
</svg>