<?xml version="1.0" encoding="UTF-8"?>
<svg id="Calque_1" data-name="Calque 1" xmlns="http://www.w3.org/2000/svg" viewBox="0 0 1920 1080">
  <path d="M426.76,334.17l.52-78.96-20.06.88v-5.8l-71.19-25.13-.09,21.11-41.01-23.51-133.08.07.06,678.59,134.34-.23,39.2-26.34.1,24.35,72.28-29.03v-6.79l19.54,1.95-.61-531.15ZM335.33,825.06c-11.36,32.49-28.09,51.55-39.91,63.11l-121.92,1.3.21-653.52,121.22.11,40.99,22.32-.59,566.68ZM423.63,585.59c-5.3,65.87-16.36,93.94-16.36,93.94l.31,178.83-63.9,25.28-.67-642.76,64.21,21.94v5.6l17.01-.85-.6,318.03Z"/>
</svg>