<?xml version="1.0" encoding="UTF-8"?>
<svg id="Calque_1" data-name="Calque 1" xmlns="http://www.w3.org/2000/svg" viewBox="0 0 1920 1080">
  <path d="M471.58,254.71l-32.23,3.42v-9.95l-94.5-22.88.09,21.4-49.42-23.98-133.68.1.07,678.59,133.61-.19,48.47-26.67.12,24.35,95.31-27.01v-10.17l32.06,4.19,19.48-23.37V275.42l-19.39-20.71ZM343.99,823.22c-14.11,32.49-33.8,52.64-48.48,64.2l-121.68,2.05.25-653.52,121.44.08,49.4,22.79-.93,564.41ZM467.45,587.6c-4.65,82.26-28.11,137.94-28.11,137.94v134.9l-85.13,22.92-.69-643.33,85.81,20.51v9.47l29.23-3.75-1.12,321.35ZM488.97,335.17c-4.06,8.96-5,31.15-6.71,50.26-5.36,60.13-4.41,53.22-9.38,189.8l.52-307.77,15.56,16.19v51.52Z"/>
</svg>