<?xml version="1.0" encoding="UTF-8"?>
<svg id="Calque_1" data-name="Calque 1" xmlns="http://www.w3.org/2000/svg" viewBox="0 0 1920 1080">
  <path d="M788,297.3v-13.87l-44.69-19.33-52.01,4.84-.25-14.35-114.57-14.11-46.61,18.87-27.83-24.7-137.76-10.43.18,21.4-69.36-23.22-133.26.41.13,678.59,134.34-.24,68.22-25.95.24,24.35,137.71-12.33,27.28-27.09,47.26,21.17,113.78-15.6-.16-16.39,52.52,6.52,44.83-21.17v-11.62l8.73-.47-.76-530.04-7.97,4.74ZM364.53,825.04c-15.5,26.34-54.16,53.76-68.81,62.6l-120.79,1.88-.89-653.59,121.08-.21,69.31,22.03.11,567.3ZM574.34,612.91c-7.33,156.97-43.25,189.2-44.95,196.29-8.99,37.45-17.54,52.36-27.63,65.76l-123.93,11.25-.53-647.86,123.39,8.78,29.78,23.72,44.63-17.33-.75,359.39ZM645.92,362.23c-36.4,60.67-52.35,113.73-62.63,245.95l.37-354.32,107.64,12.1-.49,50.02c-10.15,6.69-35.01,29.42-44.89,46.26ZM773.27,363.84c-16.43,47.67-21.28,67.59-29.29,239.8l-1.94-329.23,45.96,18.59v41.59c-8.32,8.2-14.73,29.25-14.73,29.25Z"/>
</svg>