<?xml version="1.0" encoding="UTF-8"?>
<svg id="Calque_1" data-name="Calque 1" xmlns="http://www.w3.org/2000/svg" viewBox="0 0 1920 1080">
  <path d="M1356.52,217.37H162.27v676.38h1591.24V217.37h-396.99ZM1610.92,229.81c-186.05,37.76-239.21,162.11-254.4,377.27V229.81h254.4ZM1218.57,229.81c-231.94,52.06-233.05,227.69-253.39,375.44V229.81h253.39ZM174.72,881.31V229.81h384.55v248.71c0,19.33-.84,38.66-2.65,57.9-14.89,158.54-55.18,263.35-164.25,316.35-39.25,19.07-82.48,28.54-126.11,28.54h-91.53ZM571.5,881.31V229.81h381.53v319.39c0,46.54-6.87,92.9-21.15,137.2-24.89,77.18-66.64,132.51-136.73,166.49-39.17,18.99-82.29,28.41-125.82,28.41h-97.83Z"/>
</svg>