<?xml version="1.0" encoding="UTF-8"?>
<svg id="Calque_1" data-name="Calque 1" xmlns="http://www.w3.org/2000/svg" viewBox="0 0 1920 1080">
  <path d="M1080.88,218.23l-86.68,19.13-86.84-20.01h-128.86s-77.95,20.01-77.95,20.01l-102.16-19.42-133.11-.58-48.5,20-118.84-19.92-136.31-.08v677.38l133.16-.35,121.82-21.65,48.76,22,133.01-.22,103.94-21.78,75.64,23,131.36-.79,85.45-21.21,91.84,22,132.48.05,69.75-22.05,109.92,22V217.37l-111.41,20-69.19-19.88-137.29.74ZM1281.84,248.26c-42.1,6.76-64.14,33.41-64.14,33.41-77.91,57.42-119.72,150.39-129.38,325.42V230.81l128.97.24,64.55,17.21ZM993.77,249.78c-36.29,4.58-62.89,15.64-85.84,36.79-88.97,66.22-112.9,189.99-122.06,320.51V229.81l2.58,1,118.89.05,86.43,18.92ZM174.12,882.31V230.81l123.83-.06,118.83,19.06,48.79-20v233.88c0,43.07,1.97,86.05-2.57,128.7-16.06,150.92-23.77,218.29-72.28,245.1-31.5,17.4-64.26,39.01-94.58,44.33l-122.02.49ZM478.9,881.31V229.81l119.5.81,102.16,19.19,74.87-19v318.4c0,46.54-5.26,88.02-12.82,133.25-13.86,82.97-40.47,135.62-102.42,171.87-30.98,18.13-30.81,19.06-61.79,27.01l-119.5-.03Z"/>
</svg>