<?xml version="1.0" encoding="UTF-8"?>
<svg id="Calque_1" data-name="Calque 1" xmlns="http://www.w3.org/2000/svg" viewBox="0 0 1920 1080">
  <path d="M638.09,275.64v-9.53l-88.68-18.41-61.45,15.68v-22.46l-129.65-15.75.14,21.4-62.92-24.14-133.69.39.11,678.59,135.19.51,61.7-27.91.19,24.35,129.65-17.55v-25.07l60.41,17.9,89.35-21.65.02-9.95,27.09.47V275.77s-27.45-.12-27.45-.12ZM295.91,888.11l-121.53,1.36.39-653.52,120.77-.21,62.88,22.95.49,565.3c-13.25,23.33-44.79,53.3-63,64.12ZM546.44,592.26c-5.8,156.97-57.77,212.83-57.77,212.83v63.23l-116.97,16.97-.5-645.59,116.77,13.21v10.47s0,11.16,0,11.16l59.06-14.35-.59,332.07ZM638.02,324.57c-8.03,6.69-31.7,33.94-39.07,52.51-26,59.87-34.32,98.55-45.25,231.04l.56-347.64,83.83,16.85-.08,47.23Z"/>
</svg>