<?xml version="1.0" encoding="UTF-8"?>
<svg id="Calque_1" data-name="Calque 1" xmlns="http://www.w3.org/2000/svg" viewBox="0 0 1920 1080">
  <path d="M384.82,334.17l.21-81-10.81.45-.26-3.6-48.46-25.6-.08,19.11-29.45-20.54-134.13-.16.05,678.59,133.61-.45,30.03-24.41.08,22.35,48.91-29.78-.1-2.84,10.51.3-.12-532.41ZM325.7,833.03c-9.92,29.56-20.94,43.36-30.89,54.92l-121.16,1.52.17-653.52,122.16.34,29.31,19.24.4,577.51ZM379.94,585.69c-1.62,34.27-6.64,43.3-6.64,43.3l.52,229.3-42.92,25.23-.62-644,43.43,22.07-.19,3.6,7.4-.06-.97,320.56Z"/>
</svg>