<?xml version="1.0" encoding="UTF-8"?>
<svg id="Calque_1" data-name="Calque 1" xmlns="http://www.w3.org/2000/svg" viewBox="0 0 1920 1080">
  <path d="M1291.83,217.37h-11.48l-55.3,11-205.23-12.01-95.21,1.01-125.16,11-148.32-11.42-102.22.42h-11.58l-104.15,11-138.69-10.92-132.86-.08v676.38l121.64.2,143.91-11.2,110.15,11h11.58l121.72-.05,122.82-10.95,111.19,11,92.9,1.21,221.5-12.21,61.3,11h11.48l87.43,1.05,185.64-12.05,102.62,11V217.37l-96.62,11-184.85-11.88-94.23.88ZM1516.4,239.78c-153.79,34.91-210.2,152.14-224.57,367.3V229.81l93.14-.76,131.43,10.73ZM1156.15,239.78c-199.37,40.83-218.5,207.37-234.67,367.3V229.81h3.14l97.74-.75,133.79,10.71ZM173.42,881.31V229.81l121.09-.06,138.68,11.06,104.15-11v233.88c0,43.07-2.82,86.11-8.86,128.7-18.08,127.53-43.5,211.24-134.05,257.73-37.14,19.07-86.27,31.48-134.39,31.18h-86.62ZM548.92,881.31V229.81l111.3-.19,139.24,11.19,110.53-11v319.4c0,46.54-6.83,92.8-20.02,137.2-23.57,79.35-65.12,132.11-131.45,166.09-37.07,18.99-71.2,28.84-112.4,28.84l-97.2-.03Z"/>
</svg>