<?xml version="1.0" encoding="UTF-8"?>
<svg id="Calque_1" data-name="Calque 1" xmlns="http://www.w3.org/2000/svg" viewBox="0 0 1920 1080">
  <path d="M569.74,280.54l-.42-7.72-55.07-20.03-46.73,6.68v-13.95l-115.72-20.32.12,21.4-55.99-23.65-134.09-.13.09,678.59,133.23-.08,56.6-27.37.16,24.35,115.39-22.49v-16.17l46.04,8.8,56.48-23.94.2-7.98,6.61-.41-.64-555.74-6.26.17ZM295.14,887.52l-121.97,1.95.32-653.52,122.45.31,55.95,22.46-.44,564.21c-17.47,33.87-37.82,53.04-56.31,64.6ZM509.58,590.72c-5.9,117.35-42.48,177.05-42.48,177.05l.43,95.37-103.86,21.5-.93-644.71,66.65,11.13,38.13,6.42v14.42l42.35-7.42-.3,326.24ZM568.98,330.65c-6.61,6.69-15.87,24.66-21.93,43.24-21.41,59.87-22.41,105-30.35,239.74l.47-348.64,51.88,18.43-.06,47.23Z"/>
</svg>