<?xml version="1.0" encoding="UTF-8"?>
<svg id="Calque_1" data-name="Calque 1" xmlns="http://www.w3.org/2000/svg" viewBox="0 0 1920 1080">
  <path d="M1022.27,218.56l-78.23,20.16-76.9-21.37h-133s-59.6,22.01-59.6,22.01l-97.14-21.42-134.97-.58-33.17,22-113.68-21.92-133.94-.08v678.38l134.01-.35,114.46-23.65,32.41,24,133.88-.22,98.8-22.78,59.44,23,133.33.21,75.58-23.21,79.53,23,133.38.05,59.96-23.05,97.37,23V217.37l-96.98,21.91-61.61-21.1-132.93.37ZM1211.66,250.17c-39.21,6.76-57.96,32.05-57.96,32.05-78.23,55.82-120.04,149.83-129.04,324.86l-.9-376.01,130.61.67,57.29,18.43ZM943.64,251.14c-35.94,4.34-63.35,16.91-82.53,38.14-85.41,65.55-109.58,187.28-118.11,317.8l-1.03-376.24,2.43-.03,122.72.05,76.52,20.27ZM174.27,883.31V230.81l121.32-.06,113.67,21.06,33.44-21-.52,232.27c-.06,48.64-.96,84.31-2.27,128.66-4.5,152.62-23.55,216.48-30.53,222.87-40.7,37.23-85.91,62.05-114.15,67.37l-120.96,1.32ZM454.1,881.31V230.81l123.29-.19,97.14,21.19,57.72-20v317.4c0,46.54-3.26,84.74-9.17,132.97-10.82,88.35-33.43,136.47-91.12,172.72-28.85,18.13-31.99,19.5-55.58,27.44l-122.29-1.03Z"/>
</svg>