<svg width="227" height="134" viewBox="0 0 227 134" fill="none" xmlns="http://www.w3.org/2000/svg">
<path d="M188.92 0H168.25V26.0642L132.834 0H112.159V25.3504L75.4456 0H56.0795V25.3504L19.3661 0H0V105.974L38.0775 134H58.7472V107.942L94.1599 134H114.83V108.65L151.552 134H170.918V108.65L207.634 134H227V28.0265L188.92 0ZM56.0795 51.2268C56.0795 79.8081 39.0754 103.959 18.9537 103.959H2.67059V2.67607H18.5355L56.0795 28.6016V51.2268ZM112.162 51.2268C112.162 79.8081 95.1577 103.959 75.0274 103.959H58.7501V2.67607H74.615L112.165 28.6016V51.2268H112.162ZM151.967 27.3647C151.523 27.3647 151.076 27.3791 150.632 27.3994C134.533 28.1854 120.497 43.0425 114.832 63.2026V2.67607H131.961L165.51 27.3647H151.97H151.967ZM208.052 27.3647C191.397 27.3647 176.735 42.4848 170.918 63.2026V2.67607H188.04L221.59 27.3647H208.052Z" fill="#F6F6F6"/>
</svg>
