<svg width="140" height="78" viewBox="0 0 140 78" fill="none" xmlns="http://www.w3.org/2000/svg">
<path d="M23.1793 12H12V62.9673L35.0573 76H46.9353V64.5964L64.8688 76H76.7468V64.5964L94.2144 76H106.325V64.5964L126.821 76H138V24.3345L113.079 12H101.9V21.0764L82.3364 12H70.9242V21.0764L52.9908 12H41.3457V21.0764L23.1793 12Z" fill="black" stroke="black" stroke-width="4"/>
<path d="M31.626 56V31.69H41.35C44.4326 31.69 46.7106 32.2113 48.184 33.254C49.68 34.2967 50.428 35.9627 50.428 38.252C50.428 38.9547 50.3146 39.6007 50.088 40.19C49.8613 40.7793 49.544 41.3007 49.136 41.754C48.728 42.1847 48.218 42.5473 47.606 42.842C46.994 43.1367 46.3026 43.3407 45.532 43.454C47.2093 43.6807 48.5693 44.2927 49.612 45.29C50.6546 46.2647 51.176 47.602 51.176 49.302C51.176 51.546 50.428 53.2233 48.932 54.334C47.4586 55.4447 45.2826 56 42.404 56H31.626ZM35.502 52.668H42.098C43.73 52.668 44.9766 52.362 45.838 51.75C46.6993 51.1153 47.13 50.186 47.13 48.962C47.13 47.738 46.6993 46.7973 45.838 46.14C44.9993 45.4827 43.7526 45.154 42.098 45.154H35.502V52.668ZM35.502 42.094H41.044C42.7666 42.094 44.0813 41.788 44.988 41.176C45.8946 40.564 46.348 39.68 46.348 38.524C46.348 37.3453 45.906 36.4727 45.022 35.906C44.1606 35.3167 42.8346 35.022 41.044 35.022H35.502V42.094ZM53.6064 56V31.69H57.4824V52.6H69.8244V56H53.6064ZM69.8592 43.862C69.8592 41.9353 70.1426 40.19 70.7092 38.626C71.2759 37.062 72.0806 35.736 73.1232 34.648C74.1659 33.56 75.4126 32.7213 76.8632 32.132C78.3366 31.5427 79.9686 31.248 81.7592 31.248C83.5499 31.248 85.1819 31.5427 86.6552 32.132C88.1286 32.7213 89.3866 33.56 90.4292 34.648C91.4719 35.736 92.2766 37.062 92.8432 38.626C93.4099 40.19 93.6932 41.9353 93.6932 43.862C93.6932 45.8113 93.4099 47.568 92.8432 49.132C92.2766 50.6733 91.4719 51.988 90.4292 53.076C89.4092 54.164 88.1512 55.0027 86.6552 55.592C85.1819 56.1587 83.5499 56.442 81.7592 56.442C79.9686 56.442 78.3366 56.1587 76.8632 55.592C75.3899 55.0027 74.1319 54.164 73.0892 53.076C72.0692 51.9653 71.2759 50.6393 70.7092 49.098C70.1426 47.5567 69.8592 45.8113 69.8592 43.862ZM73.8712 43.862C73.8712 45.2673 74.0526 46.548 74.4152 47.704C74.8006 48.8373 75.3332 49.8007 76.0132 50.594C76.7159 51.3873 77.5432 51.9993 78.4952 52.43C79.4699 52.838 80.5579 53.042 81.7592 53.042C82.9606 53.042 84.0486 52.838 85.0232 52.43C85.9979 51.9993 86.8252 51.3873 87.5052 50.594C88.2079 49.8007 88.7406 48.8373 89.1032 47.704C89.4886 46.5707 89.6812 45.29 89.6812 43.862C89.6812 42.4113 89.4886 41.1193 89.1032 39.986C88.7179 38.8527 88.1852 37.8893 87.5052 37.096C86.8252 36.3027 85.9979 35.702 85.0232 35.294C84.0486 34.8633 82.9606 34.648 81.7592 34.648C80.5806 34.648 79.5039 34.8633 78.5292 35.294C77.5546 35.702 76.7272 36.3027 76.0472 37.096C75.3672 37.8893 74.8346 38.8527 74.4492 39.986C74.0639 41.1193 73.8712 42.4113 73.8712 43.862ZM95.5916 43.896C95.5916 41.9693 95.8636 40.224 96.4076 38.66C96.9516 37.096 97.7223 35.77 98.7196 34.682C99.7396 33.594 100.964 32.7553 102.392 32.166C103.842 31.554 105.44 31.248 107.186 31.248C110.064 31.248 112.478 32.0073 114.428 33.526C116.377 35.022 117.669 37.1413 118.304 39.884H114.122C113.6 38.2293 112.739 36.9487 111.538 36.042C110.336 35.1127 108.863 34.648 107.118 34.648C106.007 34.648 104.976 34.8633 104.024 35.294C103.094 35.7247 102.301 36.3367 101.644 37.13C101.009 37.9007 100.51 38.864 100.148 40.02C99.785 41.1533 99.6036 42.4227 99.6036 43.828C99.6036 45.256 99.785 46.5367 100.148 47.67C100.51 48.8033 101.02 49.7667 101.678 50.56C102.335 51.3533 103.128 51.9653 104.058 52.396C104.987 52.8267 106.041 53.042 107.22 53.042C108.194 53.042 109.101 52.8947 109.94 52.6C110.778 52.2827 111.515 51.8407 112.15 51.274C112.784 50.7073 113.306 50.016 113.714 49.2C114.144 48.384 114.45 47.4433 114.632 46.378H107.288V43.25H118.372V56H115.72L115.244 52.09C114.428 53.4273 113.328 54.4927 111.946 55.286C110.586 56.0567 108.954 56.442 107.05 56.442C105.304 56.442 103.729 56.1473 102.324 55.558C100.918 54.9687 99.717 54.13 98.7196 53.042C97.7223 51.954 96.9516 50.6393 96.4076 49.098C95.8636 47.534 95.5916 45.8 95.5916 43.896Z" fill="black"/>
<path d="M13.1793 2H2V52.9673L25.0573 66H36.9353V54.5964L54.8688 66H66.7468V54.5964L84.2144 66H96.3253V54.5964L116.821 66H128V14.3345L103.079 2H91.9002V11.0764L72.3364 2H60.9242V11.0764L42.9908 2H31.3457V11.0764L13.1793 2Z" fill="#F6F6F6" stroke="black" stroke-width="4"/>
<path d="M21.626 46V21.69H31.35C34.4326 21.69 36.7106 22.2113 38.184 23.254C39.68 24.2967 40.428 25.9627 40.428 28.252C40.428 28.9547 40.3146 29.6007 40.088 30.19C39.8613 30.7793 39.544 31.3007 39.136 31.754C38.728 32.1847 38.218 32.5473 37.606 32.842C36.994 33.1367 36.3026 33.3407 35.532 33.454C37.2093 33.6807 38.5693 34.2927 39.612 35.29C40.6546 36.2647 41.176 37.602 41.176 39.302C41.176 41.546 40.428 43.2233 38.932 44.334C37.4586 45.4447 35.2826 46 32.404 46H21.626ZM25.502 42.668H32.098C33.73 42.668 34.9766 42.362 35.838 41.75C36.6993 41.1153 37.13 40.186 37.13 38.962C37.13 37.738 36.6993 36.7973 35.838 36.14C34.9993 35.4827 33.7526 35.154 32.098 35.154H25.502V42.668ZM25.502 32.094H31.044C32.7666 32.094 34.0813 31.788 34.988 31.176C35.8946 30.564 36.348 29.68 36.348 28.524C36.348 27.3453 35.906 26.4727 35.022 25.906C34.1606 25.3167 32.8346 25.022 31.044 25.022H25.502V32.094ZM43.6064 46V21.69H47.4824V42.6H59.8244V46H43.6064ZM59.8592 33.862C59.8592 31.9353 60.1426 30.19 60.7092 28.626C61.2759 27.062 62.0806 25.736 63.1232 24.648C64.1659 23.56 65.4126 22.7213 66.8632 22.132C68.3366 21.5427 69.9686 21.248 71.7592 21.248C73.5499 21.248 75.1819 21.5427 76.6552 22.132C78.1286 22.7213 79.3866 23.56 80.4292 24.648C81.4719 25.736 82.2766 27.062 82.8432 28.626C83.4099 30.19 83.6932 31.9353 83.6932 33.862C83.6932 35.8113 83.4099 37.568 82.8432 39.132C82.2766 40.6733 81.4719 41.988 80.4292 43.076C79.4092 44.164 78.1512 45.0027 76.6552 45.592C75.1819 46.1587 73.5499 46.442 71.7592 46.442C69.9686 46.442 68.3366 46.1587 66.8632 45.592C65.3899 45.0027 64.1319 44.164 63.0892 43.076C62.0692 41.9653 61.2759 40.6393 60.7092 39.098C60.1426 37.5567 59.8592 35.8113 59.8592 33.862ZM63.8712 33.862C63.8712 35.2673 64.0526 36.548 64.4152 37.704C64.8006 38.8373 65.3332 39.8007 66.0132 40.594C66.7159 41.3873 67.5432 41.9993 68.4952 42.43C69.4699 42.838 70.5579 43.042 71.7592 43.042C72.9606 43.042 74.0486 42.838 75.0232 42.43C75.9979 41.9993 76.8252 41.3873 77.5052 40.594C78.2079 39.8007 78.7406 38.8373 79.1032 37.704C79.4886 36.5707 79.6812 35.29 79.6812 33.862C79.6812 32.4113 79.4886 31.1193 79.1032 29.986C78.7179 28.8527 78.1852 27.8893 77.5052 27.096C76.8252 26.3027 75.9979 25.702 75.0232 25.294C74.0486 24.8633 72.9606 24.648 71.7592 24.648C70.5806 24.648 69.5039 24.8633 68.5292 25.294C67.5546 25.702 66.7272 26.3027 66.0472 27.096C65.3672 27.8893 64.8346 28.8527 64.4492 29.986C64.0639 31.1193 63.8712 32.4113 63.8712 33.862ZM85.5916 33.896C85.5916 31.9693 85.8636 30.224 86.4076 28.66C86.9516 27.096 87.7223 25.77 88.7196 24.682C89.7396 23.594 90.9636 22.7553 92.3916 22.166C93.8423 21.554 95.4403 21.248 97.1856 21.248C100.064 21.248 102.478 22.0073 104.428 23.526C106.377 25.022 107.669 27.1413 108.304 29.884H104.122C103.6 28.2293 102.739 26.9487 101.538 26.042C100.336 25.1127 98.863 24.648 97.1176 24.648C96.007 24.648 94.9756 24.8633 94.0236 25.294C93.0943 25.7247 92.301 26.3367 91.6436 27.13C91.009 27.9007 90.5103 28.864 90.1476 30.02C89.785 31.1533 89.6036 32.4227 89.6036 33.828C89.6036 35.256 89.785 36.5367 90.1476 37.67C90.5103 38.8033 91.0203 39.7667 91.6776 40.56C92.335 41.3533 93.1283 41.9653 94.0576 42.396C94.987 42.8267 96.041 43.042 97.2196 43.042C98.1943 43.042 99.101 42.8947 99.9396 42.6C100.778 42.2827 101.515 41.8407 102.15 41.274C102.784 40.7073 103.306 40.016 103.714 39.2C104.144 38.384 104.45 37.4433 104.632 36.378H97.2876V33.25H108.372V46H105.72L105.244 42.09C104.428 43.4273 103.328 44.4927 101.946 45.286C100.586 46.0567 98.9536 46.442 97.0496 46.442C95.3043 46.442 93.729 46.1473 92.3236 45.558C90.9183 44.9687 89.717 44.13 88.7196 43.042C87.7223 41.954 86.9516 40.6393 86.4076 39.098C85.8636 37.534 85.5916 35.8 85.5916 33.896Z" fill="black"/>
</svg>
