<svg width="449" height="93" viewBox="0 0 449 93" fill="none" xmlns="http://www.w3.org/2000/svg">
<path d="M415.99 2H402.498V17.6366L371.488 2H358.001V17.6366L326.991 2H313.499V17.6366L282.489 2H269.002V17.6366L237.987 2H224.5V17.6366L193.49 2H180.003V17.6366L148.988 2H135.501V17.6366L104.491 2H90.9989V17.6366L59.9888 2H46.5023V17.6366L15.4923 2H2V75.3634L33.0157 91H46.5023V75.3634L77.5123 91H90.9989V75.3634L122.015 91H135.501V75.3634L166.511 91H180.003V75.3634L211.013 91H224.5V75.3634L255.516 91H269.002V75.3634L300.012 91H313.499V75.3634L344.515 91H358.001V75.3634L389.011 91H402.498V75.3634L433.513 91H447V17.6366L415.99 2Z" stroke="black" stroke-width="4" stroke-miterlimit="10"/>
</svg>
