<svg width="360" height="93" viewBox="0 0 360 93" fill="none" xmlns="http://www.w3.org/2000/svg">
<path d="M326.99 2H313.503V17.6366L282.487 2H269V17.6366L237.99 2H224.503V17.6366L193.487 2H180V17.6366L148.99 2H135.503V17.6366L104.487 2H91V17.6366L59.9896 2H46.4972V17.6366L15.4867 2H2V75.3634L33.0104 91H46.4972V75.3634L77.5133 91H91V75.3634L122.01 91H135.503V75.3634L166.513 91H180V75.3634L211.016 91H224.503V75.3634L255.513 91H269V75.3634L300.016 91H313.503V75.3634L344.513 91H358V17.6366L326.99 2Z" stroke="black" stroke-width="4" stroke-miterlimit="10"/>
</svg>
