<svg width="805" height="93" viewBox="0 0 805 93" fill="none" xmlns="http://www.w3.org/2000/svg">
<path d="M771.99 2H758.503V17.6366L727.487 2H714.001V17.6366L682.99 2H669.498V17.6366L638.488 2H625.001V17.6366L593.991 2H580.499V17.6366L549.489 2H536.002V17.6366L504.992 2H491.499V17.6366L460.489 2H447.003V17.6366L415.987 2H402.5V17.6366L371.49 2H358.003V17.6366L326.987 2H313.501V17.6366L282.49 2H269.004V17.6366L237.988 2H224.501V17.6366L193.491 2H179.999V17.6366L148.989 2H135.502V17.6366L104.486 2H90.9994V17.6366L59.9892 2H46.5025V17.6366L15.4866 2H2V75.3634L33.0159 91H46.5025V75.3634L77.5127 91H90.9994V75.3634L122.015 91H135.502V75.3634L166.512 91H179.999V75.3634L211.015 91H224.501V75.3634L255.511 91H269.004V75.3634L300.014 91H313.501V75.3634L344.511 91H358.003V75.3634L389.013 91H402.5V75.3634L433.51 91H447.003V75.3634L478.013 91H491.499V75.3634L522.515 91H536.002V75.3634L567.012 91H580.499V75.3634L611.515 91H625.001V75.3634L656.011 91H669.498V75.3634L700.514 91H714.001V75.3634L745.011 91H758.503V75.3634L789.513 91H803V17.6366L771.99 2Z" stroke="black" stroke-width="4" stroke-miterlimit="10"/>
</svg>
