<svg width="191" height="68" viewBox="0 0 191 68" fill="none" xmlns="http://www.w3.org/2000/svg">
<path d="M13.2161 2H2V53.9944L23.0302 66H35.8819V56.1288L53.1734 66H67.1935V56.1288L84.4849 66H99.6734V56.1288L116.965 66H129.349V56.1288L146.641 66H159.025V56.1288L176.317 66H188V15.4729L164.399 2H152.189V11.704L135.191 2H123.274V12.5382L104.814 2H92.196V11.2419L72.1005 2H60.8844V11.2419L43.1256 2H31.4422V11.2419L13.2161 2Z" fill="black" stroke="black" stroke-width="4"/>
<path d="M13.2161 2H2V53.9944L23.0302 66H35.8819V56.1288L53.1734 66H67.1935V56.1288L84.4849 66H99.6734V56.1288L116.965 66H129.349V56.1288L146.641 66H159.025V56.1288L176.317 66H188V15.4729L164.399 2H152.189V11.704L135.191 2H123.274V12.5382L104.814 2H92.196V11.2419L72.1005 2H60.8844V11.2419L43.1256 2H31.4422V11.2419L13.2161 2Z" fill="#F6F6F6" stroke="black" stroke-width="4"/>
<path d="M17.1004 33.862C17.1004 31.9353 17.3724 30.2013 17.9164 28.66C18.4604 27.096 19.2311 25.77 20.2284 24.682C21.2484 23.594 22.4724 22.7553 23.9004 22.166C25.3284 21.554 26.9264 21.248 28.6944 21.248C30.1904 21.248 31.5618 21.4633 32.8084 21.894C34.0778 22.302 35.1884 22.9027 36.1404 23.696C37.0924 24.4893 37.8971 25.464 38.5544 26.62C39.2118 27.776 39.6764 29.0907 39.9484 30.564H35.8344C35.4038 28.6827 34.5651 27.232 33.3184 26.212C32.0718 25.1693 30.5078 24.648 28.6264 24.648C27.5158 24.648 26.4958 24.8633 25.5664 25.294C24.6371 25.7247 23.8438 26.3367 23.1864 27.13C22.5291 27.9233 22.0191 28.8867 21.6564 30.02C21.2938 31.1307 21.1124 32.4113 21.1124 33.862C21.1124 35.2673 21.2938 36.5367 21.6564 37.67C22.0191 38.8033 22.5291 39.7667 23.1864 40.56C23.8438 41.3533 24.6371 41.9653 25.5664 42.396C26.4958 42.8267 27.5384 43.042 28.6944 43.042C30.6438 43.042 32.2418 42.4867 33.4884 41.376C34.7578 40.2427 35.5738 38.6447 35.9364 36.582H40.0504C39.8238 38.146 39.3931 39.54 38.7584 40.764C38.1238 41.9653 37.3078 42.9853 36.3104 43.824C35.3358 44.6627 34.2024 45.3087 32.9104 45.762C31.6184 46.2153 30.2018 46.442 28.6604 46.442C26.9151 46.442 25.3284 46.1473 23.9004 45.558C22.4724 44.9687 21.2484 44.13 20.2284 43.042C19.2311 41.954 18.4604 40.6393 17.9164 39.098C17.3724 37.5567 17.1004 35.8113 17.1004 33.862ZM41.9696 33.862C41.9696 31.9353 42.2529 30.19 42.8196 28.626C43.3862 27.062 44.1909 25.736 45.2336 24.648C46.2762 23.56 47.5229 22.7213 48.9736 22.132C50.4469 21.5427 52.0789 21.248 53.8696 21.248C55.6602 21.248 57.2922 21.5427 58.7656 22.132C60.2389 22.7213 61.4969 23.56 62.5396 24.648C63.5822 25.736 64.3869 27.062 64.9536 28.626C65.5202 30.19 65.8036 31.9353 65.8036 33.862C65.8036 35.8113 65.5202 37.568 64.9536 39.132C64.3869 40.6733 63.5822 41.988 62.5396 43.076C61.5196 44.164 60.2616 45.0027 58.7656 45.592C57.2922 46.1587 55.6602 46.442 53.8696 46.442C52.0789 46.442 50.4469 46.1587 48.9736 45.592C47.5002 45.0027 46.2422 44.164 45.1996 43.076C44.1796 41.9653 43.3862 40.6393 42.8196 39.098C42.2529 37.5567 41.9696 35.8113 41.9696 33.862ZM45.9816 33.862C45.9816 35.2673 46.1629 36.548 46.5256 37.704C46.9109 38.8373 47.4436 39.8007 48.1236 40.594C48.8262 41.3873 49.6536 41.9993 50.6056 42.43C51.5802 42.838 52.6682 43.042 53.8696 43.042C55.0709 43.042 56.1589 42.838 57.1336 42.43C58.1082 41.9993 58.9356 41.3873 59.6156 40.594C60.3182 39.8007 60.8509 38.8373 61.2136 37.704C61.5989 36.5707 61.7916 35.29 61.7916 33.862C61.7916 32.4113 61.5989 31.1193 61.2136 29.986C60.8282 28.8527 60.2956 27.8893 59.6156 27.096C58.9356 26.3027 58.1082 25.702 57.1336 25.294C56.1589 24.8633 55.0709 24.648 53.8696 24.648C52.6909 24.648 51.6142 24.8633 50.6396 25.294C49.6649 25.702 48.8376 26.3027 48.1576 27.096C47.4776 27.8893 46.9449 28.8527 46.5596 29.986C46.1742 31.1193 45.9816 32.4113 45.9816 33.862ZM68.2176 37.33V21.69H72.0936V37.194C72.0936 39.0527 72.6149 40.492 73.6576 41.512C74.7229 42.532 76.2189 43.042 78.1456 43.042C80.0722 43.042 81.5569 42.532 82.5996 41.512C83.6422 40.492 84.1636 39.0527 84.1636 37.194V21.69H88.0736V37.33C88.0736 38.7353 87.8356 40.0047 87.3596 41.138C86.8836 42.2487 86.2149 43.2007 85.3536 43.994C84.5149 44.7647 83.4836 45.3653 82.2596 45.796C81.0356 46.2267 79.6642 46.442 78.1456 46.442C76.6042 46.442 75.2216 46.2267 73.9976 45.796C72.7962 45.3653 71.7649 44.7647 70.9036 43.994C70.0422 43.2007 69.3736 42.2487 68.8976 41.138C68.4442 40.0047 68.2176 38.7353 68.2176 37.33ZM91.4266 46V21.69H96.2546L108.155 41.172V21.69H112.031V46H106.999L95.3026 27.028V46H91.4266ZM122.164 46V25.09H114.344V21.69H133.86V25.09H126.04V46H122.164ZM136.15 46V21.69H146.792C149.694 21.69 151.87 22.336 153.32 23.628C154.771 24.8973 155.496 26.6993 155.496 29.034C155.496 31.3687 154.771 33.1707 153.32 34.44C151.87 35.6867 149.694 36.31 146.792 36.31H140.026V46H136.15ZM140.026 32.978H146.554C148.186 32.978 149.41 32.6833 150.226 32.094C151.065 31.482 151.484 30.4733 151.484 29.068C151.484 27.6627 151.065 26.654 150.226 26.042C149.41 25.4073 148.186 25.09 146.554 25.09H140.026V32.978ZM151.688 46L145.908 35.426H150.056L156.21 46H151.688ZM164.304 46V36.786L155.328 21.69H159.782L166.242 33.114L172.702 21.69H177.156L168.18 36.786V46H164.304Z" fill="black"/>
</svg>
