<svg width="224" height="72" viewBox="0 0 224 72" fill="none" xmlns="http://www.w3.org/2000/svg">
<path d="M16.1201 2.21582L31.4424 9.98438V2H45.6152L46.0488 2.22559L60.8848 9.94629V2H74.5381L74.9365 2.18262L92.1963 10.1201V2H107.345L107.806 2.2627L123.273 11.0928V2H137.722L138.183 2.2627L152.189 10.2588V2H166.93L167.391 2.2627L170.693 4.14844L182.694 9.89941V2H195.916L196.334 2.20605L220.885 14.3076L222 14.8574V70H207.779L207.318 69.7373L192.773 61.4365V70H177.786L177.325 69.7373L163.025 61.5732V70H148.11L147.649 69.7373L133.35 61.5732V70H118.435L117.974 69.7373L103.674 61.5732V70H85.9541L85.4932 69.7373L71.1934 61.5723V70H54.6426L54.1816 69.7373L39.8818 61.5723V70H24.499L24.0391 69.7373L3.00879 57.7314L2 57.1553V2H15.6943L16.1201 2.21582Z" fill="#F6F6F6"/>
<path d="M16.1201 2.21582L17.0245 0.431996L17.0244 0.431903L16.1201 2.21582ZM31.4424 9.98438L30.538 11.7682L33.4424 13.2408V9.98438H31.4424ZM31.4424 2V0H29.4424V2H31.4424ZM45.6152 2L46.5383 0.225763L46.1044 0H45.6152V2ZM46.0488 2.22559L46.9721 0.451447L46.9719 0.451349L46.0488 2.22559ZM60.8848 9.94629L59.9615 11.7204L62.8848 13.2417V9.94629H60.8848ZM60.8848 2V0H58.8848V2H60.8848ZM74.5381 2L75.3714 0.18187L74.9746 0H74.5381V2ZM74.9365 2.18262L75.7722 0.365555L75.7698 0.364488L74.9365 2.18262ZM92.1963 10.1201L91.3606 11.9372L94.1963 13.2412V10.1201H92.1963ZM92.1963 2V0H90.1963V2H92.1963ZM107.345 2L108.335 0.262382L107.875 0H107.345V2ZM107.806 2.2627L108.797 0.52579L108.796 0.525077L107.806 2.2627ZM123.273 11.0928L122.282 12.8297L125.273 14.5375V11.0928H123.273ZM123.273 2V0H121.273V2H123.273ZM137.722 2L138.712 0.262382L138.252 0H137.722V2ZM138.183 2.2627L139.174 0.525791L139.173 0.525077L138.183 2.2627ZM152.189 10.2588L151.198 11.9957L154.189 13.7035V10.2588H152.189ZM152.189 2V0H150.189V2H152.189ZM166.93 2L167.92 0.262382L167.46 0H166.93V2ZM167.391 2.2627L168.382 0.525861L168.381 0.525077L167.391 2.2627ZM170.693 4.14844L169.702 5.88527L169.764 5.92095L169.829 5.95204L170.693 4.14844ZM182.694 9.89941L181.83 11.703L184.694 13.0756V9.89941H182.694ZM182.694 2V0H180.694V2H182.694ZM195.916 2L196.8 0.206144L196.382 0H195.916V2ZM196.334 2.20605L195.45 3.99991L195.45 3.99996L196.334 2.20605ZM220.885 14.3076L221.769 12.5138L221.769 12.5137L220.885 14.3076ZM222 14.8574H224V13.6136L222.884 13.0636L222 14.8574ZM222 70V72H224V70H222ZM207.779 70L206.789 71.7376L207.249 72H207.779V70ZM207.318 69.7373L206.327 71.4743L206.328 71.4749L207.318 69.7373ZM192.773 61.4365L193.765 59.6995L190.773 57.9923V61.4365H192.773ZM192.773 70V72H194.773V70H192.773ZM177.786 70L176.796 71.7376L177.256 72H177.786V70ZM177.325 69.7373L176.334 71.4742L176.335 71.4749L177.325 69.7373ZM163.025 61.5732L164.017 59.8364L161.025 58.1284V61.5732H163.025ZM163.025 70V72H165.025V70H163.025ZM148.11 70L147.12 71.7376L147.58 72H148.11V70ZM147.649 69.7373L146.658 71.4742L146.659 71.4749L147.649 69.7373ZM133.35 61.5732L134.341 59.8364L131.35 58.1284V61.5732H133.35ZM133.35 70V72H135.35V70H133.35ZM118.435 70L117.444 71.7376L117.905 72H118.435V70ZM117.974 69.7373L116.982 71.4742L116.983 71.4749L117.974 69.7373ZM103.674 61.5732L104.665 59.8364L101.674 58.1284V61.5732H103.674ZM103.674 70V72H105.674V70H103.674ZM85.9541 70L84.9638 71.7376L85.4242 72H85.9541V70ZM85.4932 69.7373L84.5015 71.4741L84.5029 71.4749L85.4932 69.7373ZM71.1934 61.5723L72.1851 59.8354L69.1934 58.1272V61.5723H71.1934ZM71.1934 70V72H73.1934V70H71.1934ZM54.6426 70L53.6523 71.7376L54.1127 72H54.6426V70ZM54.1816 69.7373L53.1899 71.4741L53.1913 71.4749L54.1816 69.7373ZM39.8818 61.5723L40.8735 59.8354L37.8818 58.1272V61.5723H39.8818ZM39.8818 70V72H41.8818V70H39.8818ZM24.499 70L23.5071 71.7367L23.9681 72H24.499V70ZM24.0391 69.7373L25.0309 68.0006L25.0306 68.0004L24.0391 69.7373ZM3.00879 57.7314L2.01687 59.4681L2.01722 59.4683L3.00879 57.7314ZM2 57.1553H0V58.3162L1.00808 58.892L2 57.1553ZM2 2V0H0V2H2ZM15.6943 2L16.5986 0.216082L16.1723 0H15.6943V2ZM16.1201 2.21582L15.2157 3.99964L30.538 11.7682L31.4424 9.98438L32.3468 8.20055L17.0245 0.431996L16.1201 2.21582ZM31.4424 9.98438H33.4424V2H31.4424H29.4424V9.98438H31.4424ZM31.4424 2V4H45.6152V2V0H31.4424V2ZM45.6152 2L44.6922 3.77424L45.1257 3.99982L46.0488 2.22559L46.9719 0.451349L46.5383 0.225763L45.6152 2ZM46.0488 2.22559L45.1256 3.99972L59.9615 11.7204L60.8848 9.94629L61.808 8.17215L46.9721 0.451447L46.0488 2.22559ZM60.8848 9.94629H62.8848V2H60.8848H58.8848V9.94629H60.8848ZM60.8848 2V4H74.5381V2V0H60.8848V2ZM74.5381 2L73.7048 3.81813L74.1032 4.00075L74.9365 2.18262L75.7698 0.364488L75.3714 0.18187L74.5381 2ZM74.9365 2.18262L74.1009 3.99968L91.3606 11.9372L92.1963 10.1201L93.0319 8.30306L75.7722 0.365557L74.9365 2.18262ZM92.1963 10.1201H94.1963V2H92.1963H90.1963V10.1201H92.1963ZM92.1963 2V4H107.345V2V0H92.1963V2ZM107.345 2L106.354 3.73762L106.815 4.00031L107.806 2.2627L108.796 0.525077L108.335 0.262382L107.345 2ZM107.806 2.2627L106.814 3.9996L122.282 12.8297L123.273 11.0928L124.265 9.35587L108.797 0.525791L107.806 2.2627ZM123.273 11.0928H125.273V2H123.273H121.273V11.0928H123.273ZM123.273 2V4H137.722V2V0H123.273V2ZM137.722 2L136.731 3.73762L137.192 4.00031L138.183 2.2627L139.173 0.525077L138.712 0.262382L137.722 2ZM138.183 2.2627L137.191 3.9996L151.198 11.9957L152.189 10.2588L153.181 8.52189L139.174 0.525792L138.183 2.2627ZM152.189 10.2588H154.189V2H152.189H150.189V10.2588H152.189ZM152.189 2V4H166.93V2V0H152.189V2ZM166.93 2L165.939 3.73762L166.4 4.00031L167.391 2.2627L168.381 0.525077L167.92 0.262382L166.93 2ZM167.391 2.2627L166.399 3.99953L169.702 5.88527L170.693 4.14844L171.685 2.4116L168.382 0.525862L167.391 2.2627ZM170.693 4.14844L169.829 5.95204L181.83 11.703L182.694 9.89941L183.559 8.09581L171.558 2.34484L170.693 4.14844ZM182.694 9.89941H184.694V2H182.694H180.694V9.89941H182.694ZM182.694 2V4H195.916V2V0H182.694V2ZM195.916 2L195.032 3.79386L195.45 3.99991L196.334 2.20605L197.218 0.412199L196.8 0.206144L195.916 2ZM196.334 2.20605L195.45 3.99996L220.001 16.1015L220.885 14.3076L221.769 12.5137L197.218 0.412149L196.334 2.20605ZM220.885 14.3076L220 16.1015L221.116 16.6513L222 14.8574L222.884 13.0636L221.769 12.5138L220.885 14.3076ZM222 14.8574H220V70H222H224V14.8574H222ZM222 70V68H207.779V70V72H222V70ZM207.779 70L208.77 68.2624L208.309 67.9997L207.318 69.7373L206.328 71.4749L206.789 71.7376L207.779 70ZM207.318 69.7373L208.31 68.0003L193.765 59.6995L192.773 61.4365L191.782 63.1736L206.327 71.4743L207.318 69.7373ZM192.773 61.4365H190.773V70H192.773H194.773V61.4365H192.773ZM192.773 70V68H177.786V70V72H192.773V70ZM177.786 70L178.776 68.2624L178.315 67.9997L177.325 69.7373L176.335 71.4749L176.796 71.7376L177.786 70ZM177.325 69.7373L178.317 68.0004L164.017 59.8364L163.025 61.5732L162.034 63.3101L176.334 71.4742L177.325 69.7373ZM163.025 61.5732H161.025V70H163.025H165.025V61.5732H163.025ZM163.025 70V68H148.11V70V72H163.025V70ZM148.11 70L149.101 68.2624L148.64 67.9997L147.649 69.7373L146.659 71.4749L147.12 71.7376L148.11 70ZM147.649 69.7373L148.641 68.0004L134.341 59.8364L133.35 61.5732L132.358 63.3101L146.658 71.4742L147.649 69.7373ZM133.35 61.5732H131.35V70H133.35H135.35V61.5732H133.35ZM133.35 70V68H118.435V70V72H133.35V70ZM118.435 70L119.425 68.2624L118.964 67.9997L117.974 69.7373L116.983 71.4749L117.444 71.7376L118.435 70ZM117.974 69.7373L118.965 68.0004L104.665 59.8364L103.674 61.5732L102.682 63.3101L116.982 71.4742L117.974 69.7373ZM103.674 61.5732H101.674V70H103.674H105.674V61.5732H103.674ZM103.674 70V68H85.9541V70V72H103.674V70ZM85.9541 70L86.9444 68.2624L86.4835 67.9997L85.4932 69.7373L84.5029 71.4749L84.9638 71.7376L85.9541 70ZM85.4932 69.7373L86.4849 68.0005L72.1851 59.8354L71.1934 61.5723L70.2017 63.3091L84.5015 71.4741L85.4932 69.7373ZM71.1934 61.5723H69.1934V70H71.1934H73.1934V61.5723H71.1934ZM71.1934 70V68H54.6426V70V72H71.1934V70ZM54.6426 70L55.6329 68.2624L55.1719 67.9997L54.1816 69.7373L53.1913 71.4749L53.6523 71.7376L54.6426 70ZM54.1816 69.7373L55.1733 68.0005L40.8735 59.8354L39.8818 61.5723L38.8901 63.3091L53.1899 71.4741L54.1816 69.7373ZM39.8818 61.5723H37.8818V70H39.8818H41.8818V61.5723H39.8818ZM39.8818 70V68H24.499V70V72H39.8818V70ZM24.499 70L25.4909 68.2633L25.0309 68.0006L24.0391 69.7373L23.0472 71.474L23.5071 71.7367L24.499 70ZM24.0391 69.7373L25.0306 68.0004L4.00035 55.9946L3.00879 57.7314L2.01722 59.4683L23.0475 71.4742L24.0391 69.7373ZM3.00879 57.7314L4.0007 55.9948L2.99192 55.4186L2 57.1553L1.00808 58.892L2.01687 59.4681L3.00879 57.7314ZM2 57.1553H4V2H2H0V57.1553H2ZM2 2V4H15.6943V2V0H2V2ZM15.6943 2L14.7901 3.78392L15.2159 3.99974L16.1201 2.21582L17.0244 0.431903L16.5986 0.216082L15.6943 2Z" fill="black"/>
<path d="M28.3174 48V23.69H44.7054V27.09H32.1934V34.468H44.1614V37.8H32.1934V48H28.3174ZM47.2431 48V23.69H63.9711V27.09H51.1191V34.128H63.3932V37.46H51.1191V44.6H64.1411V48H47.2431ZM66.9658 48V23.69H83.6938V27.09H70.8418V34.128H83.1158V37.46H70.8418V44.6H83.8638V48H66.9658ZM86.6885 48V23.69H94.8825C98.9171 23.69 102.011 24.7327 104.164 26.818C106.318 28.9033 107.394 31.9067 107.394 35.828C107.394 39.772 106.318 42.7867 104.164 44.872C102.011 46.9573 98.9171 48 94.8825 48H86.6885ZM90.5645 44.6H94.8825C97.6931 44.6 99.8011 43.886 101.206 42.458C102.634 41.0073 103.348 38.7973 103.348 35.828C103.348 32.8587 102.646 30.66 101.24 29.232C99.8351 27.804 97.7158 27.09 94.8825 27.09H90.5645V44.6ZM109.997 48V23.69H119.721C122.804 23.69 125.082 24.2113 126.555 25.254C128.051 26.2967 128.799 27.9627 128.799 30.252C128.799 30.9547 128.686 31.6007 128.459 32.19C128.232 32.7793 127.915 33.3007 127.507 33.754C127.099 34.1847 126.589 34.5473 125.977 34.842C125.365 35.1367 124.674 35.3407 123.903 35.454C125.58 35.6807 126.94 36.2927 127.983 37.29C129.026 38.2647 129.547 39.602 129.547 41.302C129.547 43.546 128.799 45.2233 127.303 46.334C125.83 47.4447 123.654 48 120.775 48H109.997ZM113.873 44.668H120.469C122.101 44.668 123.348 44.362 124.209 43.75C125.07 43.1153 125.501 42.186 125.501 40.962C125.501 39.738 125.07 38.7973 124.209 38.14C123.37 37.4827 122.124 37.154 120.469 37.154H113.873V44.668ZM113.873 34.094H119.415C121.138 34.094 122.452 33.788 123.359 33.176C124.266 32.564 124.719 31.68 124.719 30.524C124.719 29.3453 124.277 28.4727 123.393 27.906C122.532 27.3167 121.206 27.022 119.415 27.022H113.873V34.094ZM129.739 48L138.851 23.69H144.019L153.097 48H148.881L146.603 41.71H136.233L133.955 48H129.739ZM137.389 38.378H145.447L141.435 27.192L137.389 38.378ZM152.082 35.862C152.082 33.9353 152.354 32.2013 152.898 30.66C153.442 29.096 154.213 27.77 155.21 26.682C156.23 25.594 157.454 24.7553 158.882 24.166C160.31 23.554 161.908 23.248 163.676 23.248C165.172 23.248 166.543 23.4633 167.79 23.894C169.059 24.302 170.17 24.9027 171.122 25.696C172.074 26.4893 172.879 27.464 173.536 28.62C174.193 29.776 174.658 31.0907 174.93 32.564H170.816C170.385 30.6827 169.547 29.232 168.3 28.212C167.053 27.1693 165.489 26.648 163.608 26.648C162.497 26.648 161.477 26.8633 160.548 27.294C159.619 27.7247 158.825 28.3367 158.168 29.13C157.511 29.9233 157.001 30.8867 156.638 32.02C156.275 33.1307 156.094 34.4113 156.094 35.862C156.094 37.2673 156.275 38.5367 156.638 39.67C157.001 40.8033 157.511 41.7667 158.168 42.56C158.825 43.3533 159.619 43.9653 160.548 44.396C161.477 44.8267 162.52 45.042 163.676 45.042C165.625 45.042 167.223 44.4867 168.47 43.376C169.739 42.2427 170.555 40.6447 170.918 38.582H175.032C174.805 40.146 174.375 41.54 173.74 42.764C173.105 43.9653 172.289 44.9853 171.292 45.824C170.317 46.6627 169.184 47.3087 167.892 47.762C166.6 48.2153 165.183 48.442 163.642 48.442C161.897 48.442 160.31 48.1473 158.882 47.558C157.454 46.9687 156.23 46.13 155.21 45.042C154.213 43.954 153.442 42.6393 152.898 41.098C152.354 39.5567 152.082 37.8113 152.082 35.862ZM177.699 48V23.69H181.575V35.114L192.251 23.69H197.045L187.457 34.06L197.691 48H192.965L184.805 36.814L181.575 40.18V48H177.699Z" fill="black"/>
</svg>
