<svg width="118" height="70" viewBox="0 0 118 70" fill="none" xmlns="http://www.w3.org/2000/svg">
<path d="M98.2049 0H87.4603V13.6156L69.0505 0H58.3029V13.2428L39.2184 0H29.1514V13.2428L10.067 0H0V55.3593L19.7936 70H30.5382V56.3874L48.9465 70H59.6911V56.7572L78.7801 70H88.8471V56.7572L107.933 70H118V14.6407L98.2049 0ZM29.1514 26.7603C29.1514 41.6908 20.3123 54.3071 9.85257 54.3071H1.38824V1.39795H9.63519L29.1514 14.9411V26.7603ZM58.3044 26.7603C58.3044 41.6908 49.4653 54.3071 39.001 54.3071H30.5397V1.39795H38.7866L58.3059 14.9411V26.7603H58.3044ZM78.996 14.295C78.7651 14.295 78.5327 14.3025 78.3019 14.3131C69.9335 14.7237 62.637 22.4849 59.6926 33.0163V1.39795H68.5962L86.0361 14.295H78.9975H78.996ZM108.15 14.295C99.4927 14.295 91.8709 22.1935 88.8471 33.0163V1.39795H97.7477L115.188 14.295H108.15Z" fill="black"/>
</svg>
