<svg width="130" height="68" viewBox="0 0 130 68" fill="none" xmlns="http://www.w3.org/2000/svg">
<path d="M13.1793 2H2V52.9673L25.0573 66H36.9353V54.5964L54.8688 66H66.7468V54.5964L84.2144 66H96.3253V54.5964L116.821 66H128V14.3345L103.079 2H91.9002V11.0764L72.3364 2H60.9242V11.0764L42.9908 2H31.3457V11.0764L13.1793 2Z" fill="black" stroke="black" stroke-width="4"/>
<path d="M13.1793 2H2V52.9673L25.0573 66H36.9353V54.5964L54.8688 66H66.7468V54.5964L84.2144 66H96.3253V54.5964L116.821 66H128V14.3345L103.079 2H91.9002V11.0764L72.3364 2H60.9242V11.0764L42.9908 2H31.3457V11.0764L13.1793 2Z" fill="#F6F6F6" stroke="black" stroke-width="4"/>
<path d="M23.668 46V21.69H34.31C37.2113 21.69 39.3873 22.336 40.838 23.628C42.2886 24.8973 43.014 26.6993 43.014 29.034C43.014 31.3687 42.2886 33.1707 40.838 34.44C39.3873 35.6867 37.2113 36.31 34.31 36.31H27.544V46H23.668ZM27.544 32.978H34.072C35.704 32.978 36.928 32.6833 37.744 32.094C38.5826 31.482 39.002 30.4733 39.002 29.068C39.002 27.6627 38.5826 26.654 37.744 26.042C36.928 25.4073 35.704 25.09 34.072 25.09H27.544V32.978ZM39.206 46L33.426 35.426H37.574L43.728 46H39.206ZM44.7352 33.862C44.7352 31.9353 45.0185 30.19 45.5852 28.626C46.1519 27.062 46.9565 25.736 47.9992 24.648C49.0419 23.56 50.2885 22.7213 51.7392 22.132C53.2125 21.5427 54.8445 21.248 56.6352 21.248C58.4259 21.248 60.0579 21.5427 61.5312 22.132C63.0045 22.7213 64.2625 23.56 65.3052 24.648C66.3479 25.736 67.1525 27.062 67.7192 28.626C68.2859 30.19 68.5692 31.9353 68.5692 33.862C68.5692 35.8113 68.2859 37.568 67.7192 39.132C67.1525 40.6733 66.3479 41.988 65.3052 43.076C64.2852 44.164 63.0272 45.0027 61.5312 45.592C60.0579 46.1587 58.4259 46.442 56.6352 46.442C54.8445 46.442 53.2125 46.1587 51.7392 45.592C50.2659 45.0027 49.0079 44.164 47.9652 43.076C46.9452 41.9653 46.1519 40.6393 45.5852 39.098C45.0185 37.5567 44.7352 35.8113 44.7352 33.862ZM48.7472 33.862C48.7472 35.2673 48.9285 36.548 49.2912 37.704C49.6765 38.8373 50.2092 39.8007 50.8892 40.594C51.5919 41.3873 52.4192 41.9993 53.3712 42.43C54.3459 42.838 55.4339 43.042 56.6352 43.042C57.8365 43.042 58.9245 42.838 59.8992 42.43C60.8739 41.9993 61.7012 41.3873 62.3812 40.594C63.0839 39.8007 63.6165 38.8373 63.9792 37.704C64.3645 36.5707 64.5572 35.29 64.5572 33.862C64.5572 32.4113 64.3645 31.1193 63.9792 29.986C63.5939 28.8527 63.0612 27.8893 62.3812 27.096C61.7012 26.3027 60.8739 25.702 59.8992 25.294C58.9245 24.8633 57.8365 24.648 56.6352 24.648C55.4565 24.648 54.3799 24.8633 53.4052 25.294C52.4305 25.702 51.6032 26.3027 50.9232 27.096C50.2432 27.8893 49.7105 28.8527 49.3252 29.986C48.9399 31.1193 48.7472 32.4113 48.7472 33.862ZM71.1816 46V21.69H75.0576V42.6H87.3996V46H71.1816ZM89.9414 46V21.69H106.669V25.09H93.8174V32.128H106.091V35.46H93.8174V42.6H106.839V46H89.9414Z" fill="black"/>
</svg>
